<svg version="1.1" xmlns="http://www.w3.org/2000/svg" xmlns:xlink="http://www.w3.org/1999/xlink" x="0px" y="0px" viewBox="0 0 169 42" enable-background="new 0 0 169 42" xml:space="preserve">
<path fill="#FFFFFF" d="M161.158,0.033c-6.914,0-13.637,0.033-20.359-0.033c-1.123-0.011-1.637,0.35-2.078,1.342
	c-5.542,12.458-11.123,24.899-16.696,37.343c-0.493,1.101-0.987,2.202-1.487,3.316h14.094c0.768-1.886,1.523-3.777,2.26-5.674
	c0.35-0.901,0.76-1.307,1.801-1.293c4.647,0.064,9.296,0.051,13.944,0.009c0.992-0.009,1.356,0.311,1.508,1.314
	c0.286,1.885,0.602,3.765,0.933,5.643H169C166.374,27.943,163.767,13.997,161.158,0.033z M141.697,26.001
	c2.479-5.733,4.911-11.355,7.341-16.977c0.096-0.005,0.193-0.01,0.29-0.015c0.984,5.627,1.967,11.255,2.971,16.992
	C148.801,26.001,145.375,26.001,141.697,26.001z"/>
<path fill="#FFFFFF" d="M102.49,30.423c3.244,0.004,6.39-0.567,9.384-1.808c5.368-2.225,9.359-5.668,10.068-11.892
	c0.207-1.822,0.507-3.635,0.661-5.46c0.333-3.942-1.425-7.077-4.932-8.873c-3.472-1.779-7.251-2.263-11.058-2.312
	c-7.712-0.1-15.425-0.02-23.137-0.067c-1.019-0.006-1.35,0.34-1.465,1.315c-0.484,4.08-1.024,8.154-1.573,12.227
	c-1.276,9.468-2.562,18.936-3.853,28.449h14.741c0.515-3.845,1.03-7.687,1.551-11.58C96.175,30.422,99.332,30.419,102.49,30.423z
	 M95.977,8.107c2.967,0,5.834-0.131,8.683,0.038c2.613,0.155,3.735,1.765,3.374,4.36c-0.252,1.814-0.499,3.629-0.788,5.438
	c-0.371,2.326-1.444,3.744-3.761,3.946c-3.072,0.269-6.185,0.066-9.443,0.066C94.688,17.34,95.328,12.754,95.977,8.107z"/>
<path fill="#FFFFFF" d="M25.904,30.423c3.244,0.004,6.391-0.567,9.384-1.808c5.368-2.225,9.359-5.668,10.068-11.892
	c0.207-1.822,0.507-3.635,0.661-5.46c0.333-3.942-1.425-7.077-4.932-8.873c-3.472-1.779-7.251-2.263-11.058-2.312
	c-7.712-0.1-15.425-0.02-23.138-0.067c-1.019-0.006-1.35,0.34-1.465,1.315C4.942,5.406,4.401,9.48,3.853,13.552
	C2.577,23.02,1.291,32.488,0,42.001h14.741c0.515-3.845,1.029-7.687,1.551-11.58C19.59,30.422,22.747,30.419,25.904,30.423z
	 M19.392,8.107c2.967,0,5.834-0.131,8.683,0.038c2.613,0.155,3.735,1.765,3.374,4.36c-0.252,1.814-0.5,3.629-0.788,5.438
	c-0.371,2.326-1.444,3.744-3.761,3.946c-3.072,0.269-6.185,0.066-9.442,0.066C18.102,17.34,18.743,12.754,19.392,8.107z"/>
<path fill="#FFFFFF" d="M56.401,0.106c-1.878,13.978-3.751,27.913-5.63,41.895h14.682c1.882-14.012,3.751-27.931,5.626-41.895
	C66.072,0.106,61.293,0.106,56.401,0.106z"/>
</svg>
