<?xml version="1.0" encoding="utf-8"?>
<!-- Generator: Adobe Illustrator 17.1.0, SVG Export Plug-In . SVG Version: 6.00 Build 0)  -->
<!DOCTYPE svg PUBLIC "-//W3C//DTD SVG 1.1//EN" "http://www.w3.org/Graphics/SVG/1.1/DTD/svg11.dtd">
<svg version="1.1" id="Layer_1" xmlns="http://www.w3.org/2000/svg" xmlns:xlink="http://www.w3.org/1999/xlink" x="0px" y="0px"
	 viewBox="0 0 100 100" enable-background="new 0 0 100 100" xml:space="preserve">
<path fill="#06B3E6" d="M75.976,27.334H55.823l-4.48-14.673c-0.181-0.59-0.726-0.994-1.343-0.994s-1.163,0.404-1.343,0.994
	l-4.48,14.673H24.024c-0.775,0-1.404,0.629-1.404,1.404V63.8c0,0.775,0.629,1.404,1.404,1.404h8.591l-6.508,21.313
	c-0.227,0.742,0.191,1.526,0.933,1.753c0.137,0.042,0.275,0.062,0.411,0.062c0.602,0,1.158-0.39,1.342-0.994l6.758-22.134h12.705
	V84.12c0,0.775,0.629,1.404,1.404,1.404s1.404-0.629,1.404-1.404V65.205H64.45l6.758,22.134c0.185,0.604,0.741,0.994,1.342,0.994
	c0.137,0,0.274-0.02,0.411-0.062c0.741-0.227,1.159-1.011,0.933-1.753l-6.508-21.313h8.591c0.775,0,1.404-0.629,1.404-1.404V28.739
	C77.381,27.963,76.752,27.334,75.976,27.334z M50,17.88l2.887,9.455h-5.774L50,17.88z M74.572,30.143v12.075
	c-5.973,1.19-9.028,2.472-11.981,3.714c-2.57,1.081-5.029,2.112-9.373,3.108c-1.21-4.66-5.508-7.829-10.358-7.578
	c-5.084,0.271-9.093,4.26-9.556,9.185c-2.1,0.063-4.571,0.276-7.875,0.845V30.143H74.572z M50.465,49.615
	c-0.059,0.011-0.113,0.022-0.172,0.034c-6.273,1.183-9.446,1.104-12.806,1.018c-0.451-0.011-0.904-0.022-1.366-0.031
	c0.19-1.46,0.811-2.827,1.816-3.946c1.312-1.459,3.113-2.32,5.072-2.424C46.455,44.071,49.544,46.316,50.465,49.615z M65.489,62.396
	H34.511h-9.083v-8.052c3.997-0.715,6.689-0.897,9.037-0.912c0.067,0.01,0.128,0.038,0.197,0.038c0.025,0,0.05-0.001,0.076-0.002
	c0.084-0.005,0.164-0.019,0.243-0.038c0.831,0.003,1.628,0.023,2.434,0.044c3.355,0.084,6.829,0.172,13.397-1.066
	c6.568-1.239,9.771-2.585,12.867-3.888c2.856-1.201,5.572-2.34,10.893-3.438v17.313L65.489,62.396L65.489,62.396z"/>
<path fill="#06B3E6" d="M53.837,38.502c0.579-0.363,1.336-0.562,2.131-0.562c1.474,0,2.503,0.649,2.836,1.253
	c0.007,0.013,0.019,0.023,0.027,0.036c0.049,0.082,0.106,0.159,0.172,0.231c0.022,0.024,0.044,0.048,0.067,0.07
	c0.066,0.062,0.138,0.118,0.218,0.168c0.019,0.012,0.035,0.027,0.054,0.038c0.005,0.003,0.008,0.006,0.013,0.009
	c0.065,0.036,0.134,0.056,0.202,0.08c0.041,0.015,0.078,0.037,0.12,0.048c0.117,0.031,0.237,0.047,0.356,0.047h0.001h0.001
	c0.118,0,0.237-0.016,0.355-0.047c0.042-0.011,0.08-0.033,0.12-0.047c0.068-0.025,0.137-0.044,0.203-0.08
	c0.005-0.003,0.009-0.007,0.014-0.01c0.017-0.009,0.031-0.022,0.047-0.032c0.082-0.051,0.157-0.109,0.224-0.173
	c0.023-0.022,0.043-0.044,0.065-0.067c0.067-0.073,0.126-0.151,0.176-0.235c0.007-0.012,0.018-0.02,0.024-0.032
	c0.334-0.604,1.364-1.254,2.838-1.254c0.795,0,1.552,0.2,2.13,0.562c0.653,0.41,1.522,0.214,1.936-0.443
	c0.412-0.657,0.214-1.523-0.443-1.936c-1.019-0.64-2.306-0.992-3.622-0.992c-1.561,0-3.006,0.493-4.066,1.315
	c-1.059-0.822-2.505-1.315-4.066-1.315c-1.316,0-2.603,0.353-3.623,0.992c-0.657,0.412-0.855,1.278-0.443,1.935
	C52.314,38.716,53.179,38.915,53.837,38.502z"/>
</svg>
