<?xml version="1.0" encoding="utf-8"?>
<!-- Generator: Adobe Illustrator 17.1.0, SVG Export Plug-In . SVG Version: 6.00 Build 0)  -->
<!DOCTYPE svg PUBLIC "-//W3C//DTD SVG 1.1//EN" "http://www.w3.org/Graphics/SVG/1.1/DTD/svg11.dtd">
<svg version="1.1" id="Layer_2" xmlns="http://www.w3.org/2000/svg" xmlns:xlink="http://www.w3.org/1999/xlink" x="0px" y="0px"
	 viewBox="0 0 100 100" enable-background="new 0 0 100 100" xml:space="preserve">
<g>
	<g>
		<path fill="#06B3E6" d="M78.838,36.028c-0.552,0-1.057-0.369-1.206-0.927c-0.179-0.667,0.217-1.353,0.884-1.531l7.199-1.93
			c0.666-0.175,1.353,0.217,1.53,0.884c0.179,0.667-0.217,1.353-0.884,1.531l-7.199,1.93C79.054,36.014,78.945,36.028,78.838,36.028
			z"/>
	</g>
	<g>
		<path fill="#06B3E6" d="M21.161,36.028c-0.107,0-0.216-0.014-0.325-0.043l-7.2-1.93c-0.667-0.179-1.062-0.864-0.884-1.531
			c0.179-0.667,0.868-1.058,1.531-0.884l7.2,1.93c0.667,0.179,1.062,0.864,0.884,1.531C22.218,35.66,21.713,36.028,21.161,36.028z"
			/>
	</g>
	<g>
		<path fill="#06B3E6" d="M28.792,22.548c-0.32,0-0.64-0.122-0.884-0.366l-5.174-5.174c-0.488-0.488-0.488-1.279,0-1.768
			s1.279-0.488,1.768,0l5.174,5.174c0.488,0.488,0.488,1.279,0,1.768C29.431,22.426,29.111,22.548,28.792,22.548z"/>
	</g>
	<g>
		<path fill="#06B3E6" d="M42.21,14.691c-0.552,0-1.057-0.369-1.207-0.927L39.134,6.79c-0.179-0.667,0.217-1.353,0.884-1.531
			c0.667-0.176,1.352,0.217,1.531,0.884l1.869,6.974c0.179,0.667-0.217,1.353-0.884,1.531C42.426,14.677,42.317,14.691,42.21,14.691
			z"/>
	</g>
	<g>
		<path fill="#06B3E6" d="M57.788,14.69c-0.107,0-0.216-0.014-0.324-0.043c-0.667-0.179-1.062-0.864-0.884-1.531l1.868-6.973
			c0.179-0.667,0.865-1.06,1.53-0.884c0.667,0.179,1.062,0.864,0.884,1.531l-1.868,6.973C58.845,14.322,58.34,14.69,57.788,14.69z"
			/>
	</g>
	<g>
		<path fill="#06B3E6" d="M71.207,22.547c-0.32,0-0.64-0.122-0.884-0.366c-0.488-0.488-0.488-1.28,0-1.768l5.175-5.174
			c0.489-0.489,1.28-0.487,1.768,0c0.488,0.488,0.488,1.28,0,1.768l-5.175,5.174C71.847,22.425,71.527,22.547,71.207,22.547z"/>
	</g>
</g>
<g>
	<path fill="#06B3E6" d="M60.547,81.183c-0.201-1.048-1.119-1.808-2.189-1.808h-16.76c-1.229,0-2.226,0.997-2.226,2.227
		c0,1.232,0.997,2.229,2.226,2.229h5.125l-5.948,2.365c-0.993,0.395-1.566,1.439-1.367,2.49c0.204,1.046,1.121,1.807,2.188,1.807
		h16.76c1.229,0,2.228-0.998,2.228-2.226c0-1.231-0.999-2.23-2.228-2.23H53.23l5.949-2.363
		C60.173,83.28,60.748,82.233,60.547,81.183z M44.105,92.03c0,1.632,1.336,2.97,2.97,2.97h5.849c1.633,0,2.969-1.338,2.969-2.97
		v-0.093H44.105V92.03z M67.86,24.307c-4.932-4.932-11.397-7.399-17.86-7.399c-6.464,0-12.929,2.467-17.862,7.399
		c-9.868,9.864-9.868,25.86,0,35.723c4.131,4.13,6.531,9.335,7.203,14.712c0.131,1.044,1.266,3.146,3.24,3.146
		c0.763,0,14.073,0,14.837,0c1.973,0,3.108-2.103,3.239-3.146c0.671-5.377,3.071-10.582,7.202-14.712
		C77.729,50.167,77.729,34.17,67.86,24.307z M65.099,57.267c-4.562,4.563-7.424,10.34-8.279,16.716H43.181
		c-0.857-6.377-3.717-12.152-8.281-16.716c-4.034-4.033-6.255-9.395-6.255-15.099c0-5.705,2.221-11.066,6.256-15.101
		c4.033-4.033,9.395-6.255,15.099-6.255c5.705,0,11.066,2.222,15.099,6.256c4.037,4.033,6.258,9.396,6.258,15.1
		S69.136,53.233,65.099,57.267z"/>
</g>
</svg>
