<?xml version="1.0" encoding="utf-8"?>
<!-- Generator: Adobe Illustrator 17.1.0, SVG Export Plug-In . SVG Version: 6.00 Build 0)  -->
<!DOCTYPE svg PUBLIC "-//W3C//DTD SVG 1.1//EN" "http://www.w3.org/Graphics/SVG/1.1/DTD/svg11.dtd">
<svg version="1.1" id="Ebene_1" xmlns="http://www.w3.org/2000/svg" xmlns:xlink="http://www.w3.org/1999/xlink" x="0px" y="0px"
	 viewBox="0 0 100 100" enable-background="new 0 0 100 100" xml:space="preserve">
<g>
	<path fill="#06B3E6" d="M55.613,78.263H44.502c-0.667,0-1.111-0.444-1.111-1.111c0-0.667,0.444-1.111,1.111-1.111h11.111
		c0.667,0,1.111,0.444,1.111,1.111C56.724,77.818,56.279,78.263,55.613,78.263z"/>
</g>
<g>
	<path fill="#06B3E6" d="M96.278,72.152h-6.444c0.111-0.333,0.222-0.667,0.222-1.111V19.932c0-1.889-1.444-3.333-3.333-3.333H13.392
		c-1.889,0-3.333,1.444-3.333,3.333v51.109c0,0.444,0.111,0.778,0.222,1.111H3.837c-1.111,0-3.222,0-3.222,3.333
		c0,1.333,0.667,3,1.667,4.333c1.222,1.556,2.889,2.333,4.667,2.333h86.108c4,0,6.444-4.333,6.444-6.666
		C99.5,73.263,98.389,72.152,96.278,72.152z M12.281,71.041V19.932c0-0.667,0.444-1.111,1.111-1.111h73.331
		c0.667,0,1.111,0.444,1.111,1.111v51.109c0,0.667-0.444,1.111-1.111,1.111H13.392C12.725,72.152,12.281,71.708,12.281,71.041z
		 M93.056,79.93H7.059H6.948c-1.444,0-2.444-1-2.889-1.556c-0.667-0.889-1.222-2-1.222-2.889c0-0.889,0.111-1,0.111-1
		c0.111-0.111,0.556-0.111,0.889-0.111h9.555h73.331h9.555c0.778,0,1,0,1,1.111C97.278,76.819,95.611,79.93,93.056,79.93z"/>
</g>
<g>
	<path fill="#06B3E6" d="M58.742,58.375c-0.333-0.556-1-0.778-1.555-0.444c-0.556,0.333-0.778,1-0.444,1.556
		c0.222,0.333,0.667,0.556,1,0.556c0.222,0,0.333,0,0.556-0.111C58.854,59.708,59.076,59.041,58.742,58.375z"/>
</g>
<g>
	<path fill="#06B3E6" d="M56.52,54.597c-0.333-0.556-1-0.778-1.555-0.444c-0.556,0.333-0.778,1-0.444,1.556
		c0.222,0.333,0.667,0.556,1,0.556c0.222,0,0.333,0,0.556-0.111C56.631,55.819,56.854,55.153,56.52,54.597z"/>
</g>
<g>
	<path fill="#06B3E6" d="M49.965,55.041c-0.667,0-1.111,0.556-1.111,1.111c0,0.556,0.444,1.111,1.111,1.111
		c0.556,0,1.111-0.556,1.111-1.111C51.076,55.597,50.521,55.041,49.965,55.041z"/>
</g>
<g>
	<path fill="#06B3E6" d="M59.409,29.265c0.222,0.111,0.333,0.111,0.556,0.111c0.444,0,0.778-0.222,1-0.556
		c0.222-0.556,0.111-1.222-0.444-1.555c-0.556-0.222-1.222-0.111-1.556,0.444C58.631,28.153,58.854,28.931,59.409,29.265z"/>
</g>
<g>
	<path fill="#06B3E6" d="M59.409,61.819c-0.556,0.333-0.778,1-0.444,1.556c0.222,0.333,0.667,0.556,1,0.556
		c0.222,0,0.333,0,0.556-0.111c0.556-0.333,0.778-1,0.444-1.555C60.631,61.708,59.965,61.486,59.409,61.819z"/>
</g>
<g>
	<path fill="#06B3E6" d="M44.854,54.153c-0.556-0.333-1.222-0.111-1.556,0.444c-0.222,0.556-0.111,1.222,0.444,1.556
		c0.222,0.111,0.333,0.111,0.556,0.111c0.444,0,0.778-0.222,1-0.556C45.632,55.153,45.41,54.486,44.854,54.153z"/>
</g>
<g>
	<path fill="#06B3E6" d="M42.632,58.041c-0.556-0.222-1.222-0.111-1.556,0.444c-0.222,0.556-0.111,1.222,0.444,1.556
		c0.111,0.111,0.333,0.111,0.556,0.111c0.444,0,0.778-0.222,1-0.556C43.41,59.041,43.187,58.375,42.632,58.041z"/>
</g>
<g>
	<path fill="#06B3E6" d="M57.187,33.042c0.222,0.111,0.333,0.111,0.556,0.111c0.444,0,0.778-0.222,1-0.556
		c0.222-0.556,0.111-1.222-0.444-1.555c-0.556-0.222-1.222-0.111-1.556,0.444C56.409,32.042,56.631,32.709,57.187,33.042z"/>
</g>
<g>
	<path fill="#06B3E6" d="M49.965,51.597c4.444,0,8-3.222,9.889-6.222c0.222-0.333,0.222-0.778,0-1.111
		c-0.111-0.222-3.111-4.889-9.889-4.889c-6.778,0-9.778,4.667-9.889,4.889c-0.222,0.333-0.222,0.778,0,1.111
		C41.854,48.375,45.41,51.597,49.965,51.597z M47.521,41.82c-0.333,0.444-0.444,0.889-0.444,1.444c0,1.556,1.333,2.889,2.889,2.889
		c1.555,0,2.889-1.333,2.889-2.889c0-0.556-0.222-1-0.444-1.444c2.778,0.667,4.444,2.222,5.111,3
		c-1.556,2.222-4.222,4.555-7.555,4.555c-3.222,0-6-2.333-7.555-4.555C43.076,43.931,44.743,42.486,47.521,41.82z"/>
</g>
<g>
	<path fill="#06B3E6" d="M49.187,63.93c-0.222,0.222-0.333,0.556-0.333,0.778c0,0.222,0.111,0.556,0.333,0.778
		c0.222,0.222,0.444,0.333,0.778,0.333c0.222,0,0.556-0.111,0.778-0.333c0.222-0.222,0.333-0.556,0.333-0.778
		c0-0.222-0.111-0.556-0.333-0.778C50.298,63.486,49.632,63.486,49.187,63.93z"/>
</g>
<g>
	<path fill="#06B3E6" d="M49.965,59.264c-0.667,0-1.111,0.444-1.111,1.111c0,0.556,0.444,1.111,1.111,1.111
		c0.556,0,1.111-0.444,1.111-1.111S50.521,59.264,49.965,59.264z"/>
</g>
<g>
	<path fill="#06B3E6" d="M39.965,29.376c0.222,0,0.444,0,0.556-0.111c0.556-0.333,0.778-1,0.444-1.556
		c-0.333-0.556-1-0.778-1.556-0.444c-0.556,0.333-0.667,1-0.444,1.555C39.188,29.153,39.632,29.376,39.965,29.376z"/>
</g>
<g>
	<path fill="#06B3E6" d="M41.188,32.709c0.222,0.333,0.667,0.556,1,0.556c0.222,0,0.333,0,0.556-0.111
		c0.556-0.333,0.778-1,0.444-1.555c-0.333-0.556-1-0.778-1.556-0.444C41.076,31.376,40.965,32.042,41.188,32.709z"/>
</g>
<g>
	<path fill="#06B3E6" d="M39.299,63.819c0.222,0.111,0.333,0.111,0.556,0.111c0.444,0,0.778-0.222,1-0.556
		c0.333-0.444,0.111-1.222-0.444-1.556c-0.556-0.222-1.222-0.111-1.556,0.444C38.632,62.819,38.743,63.486,39.299,63.819z"/>
</g>
<g>
	<path fill="#06B3E6" d="M43.41,36.487c0.222,0.333,0.667,0.556,1,0.556c0.222,0,0.444,0,0.556-0.111
		c0.556-0.333,0.778-1,0.444-1.555c-0.333-0.556-1-0.778-1.556-0.444C43.299,35.264,43.187,35.931,43.41,36.487z"/>
</g>
<g>
	<path fill="#06B3E6" d="M49.965,31.709c0.556,0,1.111-0.444,1.111-1.111c0-0.556-0.556-1.111-1.111-1.111
		c-0.667,0-1.111,0.444-1.111,1.111C48.854,31.264,49.298,31.709,49.965,31.709z"/>
</g>
<g>
	<path fill="#06B3E6" d="M49.965,27.376c0.222,0,0.556-0.111,0.778-0.333c0.222-0.222,0.333-0.444,0.333-0.778
		c0-0.333-0.111-0.556-0.333-0.778c-0.444-0.444-1.111-0.444-1.556,0c-0.222,0.222-0.333,0.556-0.333,0.778
		c0,0.222,0.111,0.556,0.333,0.778C49.41,27.265,49.632,27.376,49.965,27.376z"/>
</g>
<g>
	<path fill="#06B3E6" d="M54.965,36.931c0.222,0,0.333,0.111,0.556,0.111c0.444,0,0.778-0.222,1-0.556
		c0.222-0.556,0.111-1.222-0.444-1.556c-0.556-0.222-1.222-0.111-1.556,0.444C54.187,35.931,54.409,36.598,54.965,36.931z"/>
</g>
<g>
	<path fill="#06B3E6" d="M49.965,35.931c0.556,0,1.111-0.556,1.111-1.111c0-0.667-0.556-1.111-1.111-1.111
		c-0.667,0-1.111,0.556-1.111,1.111C48.854,35.375,49.298,35.931,49.965,35.931z"/>
</g>
<g>
	<path fill="#06B3E6" d="M86,70H15V21h71V70z M17,69h67V23H17V69z"/>
</g>
</svg>
