<svg version="1.1" id="Layer_1" xmlns="http://www.w3.org/2000/svg" xmlns:xlink="http://www.w3.org/1999/xlink" x="0px" y="0px"
	 viewBox="0 0 100 100" enable-background="new 0 0 100 100" xml:space="preserve">
<g id="Captions">
</g>
<g id="Your_Icon">
	<polygon fill="#06B3E6" points="96.397,38.414 99.07,38.414 99.07,19.833 80.491,19.833 80.491,22.505 94.512,22.505 
		70.715,46.302 34.79,46.302 0.929,80.166 99.07,80.166 99.07,77.493 90.102,77.493 90.102,39.597 76.268,53.432 76.268,77.493 
		69.111,77.493 69.111,55.271 55.277,55.271 55.277,77.493 48.122,77.493 48.122,55.271 38.504,55.271 34.287,59.489 34.287,77.493 
		27.131,77.493 27.131,66.645 16.283,77.493 7.377,77.493 35.897,48.974 71.821,48.974 96.397,24.394 	"/>
</g>
</svg>
