<?xml version="1.0" encoding="utf-8"?>
<!-- Generator: Adobe Illustrator 17.1.0, SVG Export Plug-In . SVG Version: 6.00 Build 0)  -->
<!DOCTYPE svg PUBLIC "-//W3C//DTD SVG 1.1//EN" "http://www.w3.org/Graphics/SVG/1.1/DTD/svg11.dtd">
<svg version="1.1" id="Layer_1" xmlns="http://www.w3.org/2000/svg" xmlns:xlink="http://www.w3.org/1999/xlink" x="0px" y="0px"
	 viewBox="0 0 100 100" enable-background="new 0 0 100 100" xml:space="preserve">
<path fill="#06B3E6" d="M86.07,21.94h-0.14C81,21.94,77,25.95,77,30.87v10.485c-1.49-1.115-3.332-1.785-5.33-1.785h-0.14
	c-2.918,0-5.502,1.411-7.132,3.577c-1.632-2.166-4.217-3.577-7.128-3.577h-0.14c-2,0-3.841,0.668-5.33,1.781V13.93
	c0-4.92-4-8.93-8.93-8.93h-0.14c-4.93,0-8.93,4.01-8.93,8.93v45.52v26.62c0,3.316,1.826,6.213,4.52,7.753l-0.01,0.017
	c1.323,0.75,2.901,1.16,4.42,1.16h0.14h43.06h0.14C91,95,95,90.99,95,86.08V30.87C95,25.95,90.99,21.94,86.07,21.94z M66.2,48.5
	c0-2.94,2.39-5.33,5.33-5.33h0.14c2.94,0,5.33,2.39,5.33,5.33v22.05c0,2.94-2.39,5.33-5.33,5.33h-0.14c-2.94,0-5.33-2.39-5.33-5.33
	v-2.201c4.102-0.808,7.2-4.43,7.2-8.759v-0.14c0-4.328-3.104-7.949-7.2-8.758V48.5z M51.8,48.5c0-2.94,2.39-5.33,5.33-5.33h0.14
	c2.94,0,5.33,2.39,5.33,5.33v2.02H51.8V48.5z M37.4,13.93c0-2.94,2.39-5.33,5.33-5.33h0.14c2.94,0,5.33,2.39,5.33,5.33V48.5v2.02
	h-5.47c-2,0-3.841,0.668-5.33,1.781V13.93z M48.2,66.72v0.01v3.81v0.01v15.52c0,2.907-2.419,5.33-5.33,5.33h-0.14
	c-2.898,0-5.33-2.435-5.33-5.33V59.59v-0.14c0-2.94,2.39-5.33,5.33-5.33h21.74c2.94,0,5.33,2.39,5.33,5.33v0.14
	c0,2.94-2.39,5.33-5.33,5.33H50C49.01,64.92,48.2,65.73,48.2,66.72z M62.6,68.52v2.03c0,2.94-2.39,5.33-5.33,5.33h-0.14
	c-2.94,0-5.33-2.39-5.33-5.33v-0.01v-2.02H62.6z M91.4,86.07c0,2.94-2.39,5.33-5.33,5.33h-0.14H50.021
	c1.129-1.519,1.779-3.38,1.779-5.33v-8.375c1.49,1.115,3.332,1.785,5.33,1.785h0.14c2.918,0,5.502-1.411,7.131-3.577
	c1.632,2.166,4.217,3.577,7.129,3.577h0.14c4.93,0,8.93-4.01,8.93-8.93V48.5V30.87c0-2.94,2.39-5.33,5.33-5.33h0.14
	c2.94,0,5.33,2.39,5.33,5.33C91.4,30.87,91.4,86.07,91.4,86.07z M25.7,44.32h-7.65V21.65c0-2.028-2.96-2.437-3.53-0.5L5.07,53.68
	c-0.318,1.12,0.563,2.3,1.73,2.3h7.65v22.37c0,2.007,2.963,2.452,3.52,0.51l9.45-32.23c0.067-0.231,0.086-0.458,0.061-0.694
	C27.39,45.046,26.602,44.32,25.7,44.32z M18.05,65.811V54.18c0-0.99-0.81-1.8-1.8-1.8H9.198l5.252-18.079V46.12
	c0,0.99,0.81,1.8,1.8,1.8h7.046L18.05,65.811z"/>
</svg>
