<svg version="1.1" id="Layer_1" xmlns="http://www.w3.org/2000/svg" xmlns:xlink="http://www.w3.org/1999/xlink" x="0px" y="0px"
	 viewBox="0 0 100 100" enable-background="new 0 0 100 100" xml:space="preserve">
<path id="metodo" fill="#06B3E6" d="M94.995,58.644c0,0.05-0.006,0.102-0.007,0.151c-0.003,0.082-0.009,0.164-0.013,0.248
	c-0.009,0.134-0.015,0.27-0.025,0.403c-0.005,0.025-0.005,0.052-0.007,0.08c-0.012,0.126-0.024,0.253-0.042,0.381
	c0,0,0.001,0,0.001,0.004c0,0.003-0.001,0.003-0.001,0.005c-0.007,0.046-0.013,0.092-0.018,0.136
	c-0.005,0.033-0.009,0.065-0.015,0.098c-0.007,0.054-0.013,0.104-0.021,0.157c-0.019,0.13-0.041,0.26-0.064,0.39
	c-0.007,0.036-0.016,0.072-0.021,0.108c-0.007,0.029-0.014,0.06-0.019,0.09c-0.003,0.012-0.002,0.025-0.005,0.038
	c-0.005,0.02-0.011,0.04-0.015,0.062c-0.007,0.03-0.011,0.06-0.019,0.09c-0.021,0.104-0.045,0.208-0.07,0.312
	c-0.001,0.008-0.003,0.019-0.006,0.026c-0.003,0.016-0.007,0.032-0.011,0.048c-0.009,0.03-0.015,0.062-0.023,0.094
	c-0.005,0.016-0.009,0.036-0.013,0.054c-0.009,0.028-0.016,0.059-0.023,0.088c-0.015,0.062-0.032,0.124-0.049,0.187
	c-0.007,0.025-0.015,0.048-0.02,0.073c-0.005,0.019-0.011,0.034-0.015,0.05c-0.029,0.101-0.06,0.204-0.091,0.306
	c-0.001,0.006-0.003,0.011-0.005,0.015v0.002c-0.009,0.023-0.015,0.05-0.024,0.075c-0.007,0.021-0.013,0.042-0.021,0.064
	c-0.011,0.038-0.021,0.074-0.033,0.111c-0.03,0.088-0.062,0.176-0.091,0.266c-0.008,0.021-0.016,0.042-0.023,0.064
	c-0.007,0.018-0.014,0.038-0.021,0.058c-0.01,0.03-0.021,0.059-0.032,0.088c-0.001,0.004-0.001,0.008-0.004,0.01
	c0.001,0.002-0.001,0.007-0.002,0.009c-0.004,0.012-0.009,0.023-0.013,0.035c-0.032,0.088-0.067,0.176-0.102,0.264
	c-0.006,0.015-0.013,0.03-0.018,0.044c-0.005,0.013-0.009,0.024-0.013,0.036c-0.022,0.052-0.043,0.106-0.065,0.158
	c-0.023,0.054-0.047,0.107-0.068,0.162c-0.004,0.01-0.01,0.02-0.013,0.029c-0.008,0.017-0.014,0.03-0.021,0.048
	c-0.007,0.017-0.017,0.034-0.022,0.052c-0.009,0.019-0.018,0.036-0.026,0.057c-0.019,0.042-0.038,0.086-0.057,0.128
	c-0.035,0.077-0.071,0.157-0.108,0.235c-0.012,0.021-0.024,0.046-0.036,0.068c-0.006,0.02-0.018,0.037-0.025,0.056
	c-0.009,0.016-0.015,0.03-0.021,0.046c-0.005,0.006-0.007,0.016-0.012,0.021c-0.004,0.009-0.009,0.017-0.011,0.024
	c-0.035,0.072-0.072,0.144-0.11,0.216c-0.02,0.04-0.039,0.078-0.061,0.115c-0.007,0.013-0.011,0.024-0.017,0.036
	c-0.006,0.008-0.008,0.017-0.014,0.024c-0.009,0.012-0.014,0.025-0.021,0.04c-0.038,0.071-0.078,0.144-0.117,0.216
	c-0.004,0.006-0.009,0.016-0.015,0.023c-0.002,0.004-0.003,0.008-0.008,0.012c-0.028,0.053-0.055,0.103-0.083,0.152
	c-0.005,0.004-0.006,0.01-0.008,0.014c-0.04,0.068-0.079,0.136-0.117,0.202c-0.042,0.067-0.082,0.136-0.124,0.203
	c-0.009,0.015-0.02,0.03-0.029,0.046c-0.009,0.015-0.017,0.028-0.027,0.045c-0.004,0.004-0.008,0.01-0.01,0.014
	c-0.006,0.01-0.012,0.02-0.019,0.029c-0.012,0.022-0.024,0.045-0.037,0.066c-0.042,0.063-0.085,0.13-0.128,0.193
	c-0.028,0.042-0.053,0.084-0.082,0.126c-0.007,0.01-0.012,0.019-0.017,0.028c-0.01,0.014-0.02,0.025-0.029,0.04
	c-0.043,0.065-0.088,0.128-0.13,0.193c-0.007,0.008-0.012,0.015-0.017,0.022c-0.005,0.004-0.007,0.008-0.011,0.014
	c-0.035,0.052-0.071,0.102-0.107,0.154c-0.006,0.008-0.012,0.016-0.018,0.023c-0.003,0.004-0.008,0.012-0.012,0.018
	c-0.035,0.049-0.07,0.099-0.105,0.146c-0.046,0.062-0.094,0.124-0.14,0.186c-0.024,0.03-0.047,0.063-0.07,0.092
	c-0.011,0.012-0.021,0.026-0.03,0.038c-0.005,0.008-0.011,0.014-0.015,0.021c-0.011,0.011-0.017,0.022-0.026,0.034
	c-0.048,0.061-0.097,0.124-0.145,0.184c-0.049,0.061-0.097,0.122-0.146,0.183c-0.004,0.004-0.008,0.008-0.011,0.012
	c-0.005,0.006-0.008,0.012-0.016,0.018c-0.042,0.048-0.08,0.103-0.125,0.15c-0.019,0.023-0.034,0.044-0.054,0.063
	c-0.006,0.01-0.012,0.019-0.018,0.024c-0.027,0.031-0.054,0.062-0.081,0.094c-0.025,0.027-0.052,0.058-0.076,0.086
	c-0.009,0.012-0.019,0.021-0.027,0.031c-0.019,0.022-0.036,0.042-0.053,0.064c-0.027,0.03-0.055,0.06-0.084,0.09
	c-0.025,0.03-0.054,0.062-0.081,0.09c-0.028,0.03-0.057,0.062-0.085,0.092c-0.026,0.03-0.055,0.06-0.082,0.092
	c-0.027,0.028-0.054,0.059-0.084,0.088c-0.027,0.028-0.055,0.059-0.082,0.086c-0.026,0.03-0.055,0.058-0.082,0.088
	c-0.027,0.028-0.058,0.058-0.085,0.084c-0.057,0.06-0.117,0.118-0.175,0.176c-0.028,0.03-0.059,0.058-0.09,0.09
	c-0.006,0.006-0.015,0.014-0.021,0.021c-0.021,0.02-0.044,0.042-0.065,0.063c-0.06,0.058-0.118,0.114-0.178,0.172
	c-0.062,0.056-0.122,0.111-0.183,0.168c-0.063,0.058-0.127,0.115-0.191,0.176c-0.003,0.002-0.005,0-0.005,0.002
	c-0.063,0.058-0.127,0.113-0.192,0.17c-0.064,0.058-0.13,0.113-0.195,0.17c-0.067,0.056-0.135,0.111-0.199,0.165
	c-0.021,0.017-0.039,0.032-0.06,0.048c-0.008,0.007-0.018,0.015-0.023,0.021c-0.045,0.038-0.09,0.074-0.133,0.109
	c-0.072,0.059-0.146,0.116-0.218,0.172c-0.074,0.059-0.149,0.114-0.222,0.17c-0.027,0.021-0.055,0.042-0.083,0.062
	c-0.01,0.008-0.018,0.014-0.028,0.02c-0.037,0.028-0.075,0.058-0.111,0.084c-0.081,0.06-0.165,0.12-0.247,0.18
	c-0.082,0.058-0.166,0.118-0.249,0.176c-0.02,0.014-0.042,0.028-0.061,0.042c-0.016,0.008-0.026,0.018-0.041,0.026
	c-0.049,0.033-0.099,0.069-0.15,0.104c-0.083,0.056-0.167,0.111-0.254,0.168c-0.1,0.063-0.197,0.128-0.296,0.189
	c-0.102,0.062-0.201,0.124-0.302,0.184c-0.102,0.062-0.201,0.12-0.301,0.178c-0.034,0.021-0.069,0.04-0.104,0.059
	c-0.022,0.014-0.046,0.027-0.067,0.039c-0.045,0.026-0.088,0.053-0.134,0.078c-0.129,0.072-0.26,0.142-0.391,0.212
	c-0.048,0.026-0.097,0.05-0.146,0.076c-0.017,0.01-0.033,0.021-0.051,0.027c-0.02,0.011-0.037,0.019-0.053,0.028
	c-0.047,0.024-0.094,0.05-0.144,0.074c-0.132,0.065-0.265,0.132-0.398,0.195c-0.043,0.021-0.087,0.04-0.13,0.062
	c-0.033,0.014-0.063,0.029-0.098,0.046c-0.057,0.025-0.114,0.054-0.172,0.079c-0.07,0.034-0.146,0.062-0.217,0.095
	c-0.183,0.083-0.368,0.161-0.555,0.237c-0.053,0.021-0.104,0.048-0.156,0.07c-0.061,0.023-0.123,0.044-0.183,0.067
	c-0.183,0.072-0.367,0.142-0.55,0.208c-0.072,0.027-0.142,0.058-0.215,0.084c-0.044,0.016-0.089,0.027-0.133,0.042
	c-0.197,0.069-0.393,0.132-0.592,0.193c-0.08,0.026-0.158,0.056-0.236,0.08c-0.022,0.006-0.047,0.01-0.07,0.018
	c-0.289,0.088-0.582,0.172-0.873,0.248c-0.009,0.002-0.021,0.004-0.029,0.006c-0.047,0.012-0.093,0.024-0.143,0.036
	c-0.045,0.012-0.091,0.023-0.138,0.036c-0.047,0.012-0.093,0.021-0.139,0.031c-0.047,0.013-0.094,0.024-0.143,0.034
	c-0.038,0.01-0.08,0.017-0.122,0.026c-0.196,0.042-0.394,0.084-0.593,0.124c-0.083,0.016-0.165,0.035-0.248,0.05
	c-0.024,0.006-0.049,0.01-0.073,0.014c-0.025,0.004-0.053,0.01-0.078,0.016c-0.233,0.04-0.468,0.078-0.702,0.112
	c-0.039,0.008-0.08,0.014-0.117,0.02c-0.005,0-0.009,0-0.014,0.003c-0.303,0.044-0.608,0.079-0.913,0.111
	c-0.019,0.002-0.034,0.004-0.051,0.006c-0.078,0.008-0.157,0.012-0.235,0.019c-0.214,0.02-0.426,0.037-0.64,0.05
	c-0.035,0.002-0.071,0.008-0.105,0.008c-0.146,0.01-0.294,0.016-0.441,0.023c-0.047,0-0.093,0-0.138,0
	c-0.034,0.003-0.065,0.005-0.1,0.005c-0.068,0.002-0.136,0.006-0.207,0.006c-0.146,0.004-0.293,0.004-0.44,0.004
	c-0.037,0-0.072-0.002-0.108-0.002c-0.034,0-0.07,0-0.104-0.002c-0.078,0-0.155,0-0.23,0c-0.119-0.004-0.236-0.006-0.355-0.013
	c-0.059-0.004-0.118-0.006-0.176-0.008c-0.019-0.002-0.037-0.002-0.059-0.002c-0.038-0.002-0.079-0.006-0.12-0.006
	c-0.116-0.004-0.234-0.014-0.353-0.021c-0.113-0.011-0.229-0.019-0.344-0.026c-0.004-0.002-0.004-0.002-0.006-0.002
	s-0.002,0-0.004,0c-0.101-0.008-0.203-0.018-0.304-0.028c-0.103-0.01-0.206-0.023-0.307-0.033c-0.068-0.007-0.139-0.017-0.206-0.026
	c-0.008,0-0.015,0-0.022-0.002c-0.006,0-0.01-0.002-0.017-0.002c-0.021-0.004-0.037-0.004-0.059-0.006
	c-0.102-0.015-0.202-0.028-0.304-0.044c-0.093-0.013-0.184-0.026-0.275-0.04c-0.057-0.01-0.113-0.021-0.169-0.03
	c-0.012,0-0.026-0.002-0.036-0.004c-0.024-0.004-0.046-0.008-0.07-0.012c-0.092-0.017-0.184-0.034-0.275-0.05
	c-0.09-0.017-0.181-0.034-0.273-0.055c-0.061-0.01-0.121-0.023-0.183-0.035c-0.012-0.002-0.021-0.005-0.033-0.009
	c-0.013-0.002-0.024-0.004-0.037-0.006c-0.081-0.018-0.165-0.038-0.25-0.056c-0.083-0.02-0.167-0.036-0.251-0.058
	c-0.082-0.021-0.166-0.04-0.25-0.061c-0.006-0.002-0.012-0.004-0.018-0.006c-0.009-0.004-0.017-0.004-0.024-0.008
	c-0.064-0.014-0.129-0.032-0.194-0.05c-0.08-0.021-0.157-0.042-0.236-0.064c-0.079-0.021-0.158-0.046-0.236-0.067
	c-0.041-0.012-0.081-0.024-0.122-0.036c-0.011-0.004-0.022-0.008-0.034-0.012c-0.025-0.006-0.054-0.015-0.08-0.022
	c-0.075-0.023-0.15-0.048-0.226-0.073c-0.077-0.024-0.153-0.049-0.228-0.074c-0.077-0.024-0.152-0.05-0.229-0.078
	c-0.008-0.002-0.013-0.004-0.021-0.004c-0.007-0.006-0.017-0.008-0.023-0.012c-0.061-0.021-0.12-0.04-0.182-0.062
	c-0.071-0.027-0.146-0.054-0.221-0.082c-0.072-0.027-0.145-0.054-0.22-0.083c-0.048-0.021-0.098-0.04-0.146-0.059
	c-0.007-0.004-0.017-0.008-0.024-0.012c-0.017-0.006-0.032-0.014-0.048-0.018c-0.071-0.03-0.144-0.061-0.219-0.09
	c-0.071-0.03-0.144-0.062-0.215-0.095c-0.073-0.029-0.145-0.062-0.216-0.094c-0.021-0.012-0.044-0.02-0.065-0.029
	c-0.007-0.005-0.015-0.009-0.024-0.013c-0.039-0.018-0.082-0.036-0.123-0.056c-0.073-0.032-0.145-0.065-0.214-0.1
	c-0.037-0.019-0.071-0.034-0.105-0.052c-0.033-0.017-0.068-0.034-0.104-0.051c-0.034-0.018-0.071-0.037-0.104-0.054
	c-0.034-0.016-0.069-0.034-0.104-0.054c-0.036-0.016-0.072-0.038-0.108-0.056c-0.038-0.021-0.073-0.04-0.11-0.057
	c-0.035-0.02-0.069-0.037-0.107-0.058c-0.035-0.02-0.07-0.04-0.106-0.06c-0.07-0.04-0.142-0.078-0.209-0.116
	c-0.034-0.018-0.065-0.038-0.1-0.056c-0.005-0.004-0.013-0.008-0.019-0.012c-0.031-0.019-0.062-0.036-0.092-0.055
	c-0.019-0.01-0.035-0.02-0.051-0.029c-0.005-0.002-0.009-0.004-0.015-0.008c-0.045-0.026-0.093-0.055-0.139-0.082
	c-0.067-0.042-0.136-0.084-0.203-0.126c-0.072-0.044-0.144-0.088-0.211-0.134c-0.069-0.044-0.14-0.09-0.208-0.134
	c-0.028-0.019-0.053-0.036-0.08-0.057c-0.008-0.004-0.012-0.006-0.019-0.012c-0.037-0.023-0.07-0.048-0.106-0.069
	c-0.068-0.049-0.135-0.095-0.201-0.143c-0.02-0.014-0.037-0.025-0.056-0.04c-0.008-0.004-0.015-0.01-0.021-0.014
	c-0.046-0.034-0.09-0.065-0.137-0.1c-0.07-0.052-0.141-0.104-0.21-0.158c-0.02-0.012-0.039-0.027-0.059-0.042
	c-0.006-0.006-0.012-0.01-0.019-0.014c-0.043-0.034-0.086-0.068-0.129-0.1c-0.023-0.021-0.046-0.038-0.069-0.057
	c-0.009-0.008-0.019-0.014-0.028-0.023c-0.034-0.026-0.068-0.054-0.104-0.084c-0.073-0.058-0.146-0.12-0.218-0.18
	c-0.066-0.054-0.129-0.11-0.192-0.164c0-0.002-0.002-0.002-0.002-0.002h-0.003c-0.005-0.006-0.013-0.014-0.017-0.016
	c-0.016-0.017-0.033-0.028-0.048-0.044c-0.01-0.008-0.018-0.017-0.026-0.024c-0.046-0.04-0.092-0.08-0.136-0.122
	c-0.069-0.062-0.138-0.123-0.205-0.188c-0.073-0.069-0.146-0.14-0.218-0.21c0.001-0.002-0.001-0.002-0.001-0.002
	c-0.005-0.004-0.009-0.008-0.014-0.012c-0.01-0.01-0.021-0.02-0.029-0.03c-0.01-0.008-0.015-0.014-0.021-0.021
	c-0.058-0.056-0.115-0.116-0.174-0.174c-0.074-0.078-0.146-0.154-0.219-0.231c-0.021-0.022-0.042-0.044-0.061-0.066
	c-0.014-0.016-0.029-0.034-0.045-0.048c-0.035-0.042-0.073-0.08-0.108-0.12c-0.008-0.008-0.014-0.014-0.021-0.023
	c-0.01-0.012-0.021-0.024-0.03-0.038c-0.07-0.08-0.141-0.158-0.21-0.24c-0.025-0.029-0.051-0.062-0.075-0.094
	c-0.009-0.012-0.021-0.021-0.031-0.035c-0.012-0.015-0.021-0.026-0.034-0.042c-0.036-0.046-0.074-0.093-0.109-0.134
	c-0.032-0.04-0.061-0.08-0.091-0.116c-0.017-0.022-0.031-0.044-0.048-0.064c-0.034-0.046-0.069-0.088-0.104-0.134
	c-0.02-0.025-0.039-0.056-0.06-0.084c-0.019-0.023-0.037-0.052-0.056-0.075c-0.038-0.054-0.077-0.106-0.116-0.158
	c-0.028-0.042-0.053-0.086-0.082-0.128c-0.032-0.044-0.067-0.09-0.099-0.136c-0.015-0.023-0.028-0.048-0.043-0.069
	c-0.071-0.108-0.14-0.22-0.208-0.33c-0.053-0.082-0.105-0.164-0.152-0.25c-0.015-0.021-0.027-0.044-0.041-0.063
	c-0.016-0.028-0.033-0.052-0.046-0.078c-0.084-0.142-0.16-0.289-0.238-0.438c-0.025-0.048-0.054-0.094-0.079-0.144
	c-0.007-0.014-0.013-0.026-0.018-0.038c-0.021-0.04-0.042-0.082-0.061-0.12c-0.038-0.077-0.071-0.153-0.107-0.231
	c-0.067-0.142-0.136-0.283-0.196-0.428c-0.019-0.044-0.036-0.088-0.054-0.132c-0.035-0.084-0.068-0.172-0.102-0.255
	c-0.055-0.141-0.108-0.28-0.157-0.42c-0.014-0.038-0.031-0.078-0.044-0.118c-0.009-0.023-0.016-0.048-0.022-0.071
	c-0.008-0.026-0.018-0.053-0.026-0.076c-0.012-0.036-0.021-0.074-0.031-0.11c-0.051-0.159-0.096-0.319-0.141-0.481
	c-0.023-0.075-0.044-0.149-0.062-0.226c-0.01-0.033-0.019-0.067-0.026-0.1c-0.005-0.018-0.013-0.036-0.016-0.056
	c-0.052-0.214-0.097-0.43-0.137-0.646c-0.005-0.021-0.01-0.042-0.015-0.065c0-0.004-0.002-0.006-0.001-0.009
	c-0.003-0.016-0.005-0.031-0.009-0.046c-0.01-0.058-0.016-0.115-0.024-0.171c-0.036-0.214-0.067-0.428-0.09-0.644
	c-0.004-0.032-0.009-0.062-0.013-0.096c-0.008-0.07-0.012-0.146-0.017-0.216c-0.001-0.008-0.001-0.017-0.002-0.022l-2.851-0.394
	c-0.707,1.718-2.471,2.942-4.548,2.942c-2.078,0-3.841-1.225-4.548-2.942l-2.85,0.392c0,0.008-0.001,0.017-0.001,0.024
	c-0.007,0.071-0.008,0.146-0.016,0.218c-0.005,0.029-0.01,0.062-0.013,0.094c-0.025,0.216-0.056,0.432-0.091,0.644
	c-0.01,0.058-0.016,0.113-0.025,0.171c-0.003,0.017-0.004,0.032-0.007,0.046c-0.002,0.005-0.002,0.007-0.002,0.011
	c-0.003,0.021-0.009,0.042-0.014,0.065c-0.04,0.216-0.084,0.432-0.136,0.644c-0.005,0.02-0.011,0.038-0.017,0.056
	c-0.008,0.034-0.015,0.068-0.023,0.1c-0.02,0.078-0.043,0.152-0.064,0.229c-0.044,0.161-0.09,0.319-0.142,0.479
	c-0.011,0.036-0.019,0.074-0.029,0.11c-0.009,0.026-0.021,0.05-0.028,0.076c-0.008,0.023-0.015,0.048-0.022,0.071
	c-0.013,0.042-0.03,0.078-0.044,0.118c-0.051,0.142-0.103,0.283-0.158,0.422c-0.034,0.086-0.066,0.172-0.102,0.255
	c-0.018,0.044-0.034,0.086-0.054,0.13c-0.061,0.145-0.128,0.284-0.196,0.426c-0.035,0.08-0.069,0.158-0.106,0.233
	c-0.021,0.04-0.038,0.082-0.06,0.122c-0.007,0.012-0.012,0.024-0.019,0.04c-0.025,0.046-0.054,0.092-0.081,0.142
	c-0.077,0.146-0.152,0.294-0.236,0.436c-0.015,0.028-0.032,0.052-0.045,0.078c-0.015,0.02-0.028,0.042-0.042,0.065
	c-0.049,0.082-0.101,0.166-0.154,0.248c-0.067,0.112-0.135,0.222-0.207,0.332c-0.016,0.021-0.029,0.046-0.045,0.069
	c-0.031,0.046-0.066,0.09-0.097,0.136c-0.027,0.044-0.056,0.086-0.083,0.128c-0.038,0.05-0.077,0.103-0.115,0.156
	c-0.02,0.025-0.037,0.05-0.057,0.075c-0.02,0.028-0.039,0.059-0.06,0.084c-0.034,0.046-0.068,0.088-0.103,0.134
	c-0.017,0.021-0.033,0.042-0.048,0.064c-0.031,0.038-0.06,0.076-0.09,0.116c-0.035,0.044-0.074,0.09-0.11,0.136
	c-0.011,0.012-0.022,0.027-0.034,0.04c-0.008,0.016-0.022,0.025-0.03,0.037c-0.026,0.03-0.051,0.062-0.075,0.095
	c-0.068,0.079-0.14,0.159-0.209,0.239c-0.012,0.012-0.022,0.026-0.032,0.036c-0.006,0.01-0.013,0.016-0.021,0.023
	c-0.034,0.042-0.072,0.078-0.107,0.118c-0.015,0.018-0.031,0.032-0.045,0.05c-0.02,0.024-0.041,0.044-0.06,0.064
	c-0.074,0.079-0.146,0.157-0.219,0.233c-0.058,0.058-0.116,0.118-0.175,0.176c-0.007,0.006-0.012,0.012-0.018,0.018
	c-0.013,0.013-0.022,0.024-0.035,0.032c-0.003,0.004-0.007,0.01-0.01,0.012c0,0-0.002,0.002-0.002,0.004
	c-0.073,0.07-0.145,0.141-0.217,0.208c-0.067,0.066-0.135,0.128-0.206,0.189c-0.043,0.042-0.09,0.08-0.135,0.122
	c-0.009,0.008-0.018,0.017-0.025,0.024c-0.017,0.014-0.034,0.025-0.048,0.042c-0.007,0.006-0.013,0.012-0.02,0.016
	c0,0.002,0,0.002-0.001,0.002s-0.001,0.002-0.001,0.002c-0.064,0.052-0.128,0.108-0.193,0.162c-0.071,0.06-0.144,0.12-0.218,0.18
	c-0.035,0.03-0.07,0.058-0.106,0.086c-0.008,0.008-0.018,0.016-0.027,0.021c-0.022,0.019-0.046,0.036-0.069,0.057
	c-0.042,0.031-0.086,0.065-0.129,0.098c-0.006,0.006-0.013,0.01-0.02,0.018c-0.019,0.013-0.038,0.028-0.057,0.042
	c-0.069,0.054-0.14,0.106-0.209,0.158c-0.046,0.032-0.092,0.065-0.139,0.098c-0.006,0.006-0.012,0.012-0.019,0.014
	c-0.018,0.015-0.038,0.028-0.056,0.042c-0.067,0.048-0.135,0.094-0.203,0.143c-0.035,0.021-0.07,0.046-0.106,0.069
	c-0.005,0.004-0.01,0.008-0.018,0.012c-0.026,0.021-0.053,0.038-0.081,0.055c-0.067,0.046-0.138,0.09-0.208,0.134
	c-0.07,0.044-0.14,0.09-0.209,0.136c-0.067,0.04-0.136,0.082-0.203,0.122c-0.047,0.029-0.094,0.058-0.142,0.084
	c-0.004,0.002-0.009,0.006-0.013,0.008c-0.017,0.012-0.033,0.021-0.051,0.031c-0.029,0.019-0.061,0.034-0.092,0.053
	c-0.006,0.004-0.012,0.008-0.02,0.012c-0.032,0.018-0.062,0.038-0.097,0.056c-0.07,0.04-0.141,0.078-0.211,0.118
	c-0.034,0.02-0.071,0.04-0.105,0.06c-0.037,0.019-0.073,0.038-0.11,0.058c-0.036,0.019-0.071,0.036-0.108,0.057
	c-0.037,0.018-0.073,0.038-0.109,0.056c-0.034,0.02-0.069,0.036-0.104,0.052c-0.036,0.019-0.07,0.036-0.104,0.054
	c-0.036,0.017-0.07,0.036-0.104,0.053c-0.034,0.018-0.07,0.033-0.104,0.05c-0.071,0.036-0.141,0.069-0.214,0.102
	c-0.041,0.018-0.083,0.036-0.125,0.054c-0.007,0.006-0.014,0.008-0.022,0.015c-0.022,0.008-0.045,0.018-0.066,0.027
	c-0.071,0.032-0.142,0.066-0.214,0.096c-0.073,0.03-0.145,0.062-0.217,0.093c-0.073,0.029-0.146,0.06-0.217,0.09
	c-0.015,0.008-0.033,0.012-0.047,0.018c-0.009,0.004-0.015,0.008-0.025,0.012c-0.049,0.021-0.097,0.04-0.146,0.059
	c-0.075,0.027-0.146,0.058-0.22,0.083c-0.075,0.028-0.148,0.055-0.221,0.082c-0.061,0.024-0.121,0.044-0.182,0.064
	c-0.009,0.002-0.015,0.006-0.025,0.01c-0.007,0-0.014,0.004-0.021,0.006c-0.075,0.026-0.15,0.052-0.226,0.078
	c-0.076,0.026-0.152,0.05-0.227,0.074c-0.077,0.025-0.154,0.048-0.229,0.073c-0.025,0.008-0.054,0.017-0.08,0.022
	c-0.013,0.004-0.023,0.006-0.034,0.012c-0.041,0.012-0.081,0.024-0.121,0.036c-0.08,0.021-0.158,0.046-0.236,0.067
	c-0.079,0.022-0.159,0.042-0.237,0.064c-0.064,0.018-0.129,0.034-0.194,0.05c-0.007,0.002-0.017,0.004-0.024,0.006
	c-0.006,0.004-0.011,0.004-0.018,0.008c-0.084,0.019-0.167,0.038-0.251,0.061c-0.083,0.02-0.166,0.038-0.25,0.056
	c-0.083,0.02-0.167,0.038-0.251,0.056c-0.011,0.002-0.023,0.006-0.036,0.008c-0.01,0.002-0.021,0.005-0.033,0.007
	c-0.062,0.012-0.122,0.025-0.184,0.037c-0.091,0.019-0.182,0.034-0.273,0.055c-0.091,0.016-0.182,0.031-0.273,0.05
	c-0.024,0.002-0.046,0.008-0.07,0.01c-0.011,0.002-0.025,0.004-0.038,0.006c-0.056,0.008-0.112,0.019-0.168,0.026
	c-0.091,0.016-0.182,0.029-0.275,0.042c-0.101,0.016-0.203,0.027-0.304,0.042c-0.02,0.004-0.04,0.006-0.06,0.008
	c-0.006,0.002-0.01,0.002-0.016,0.002c-0.005,0.002-0.014,0.002-0.021,0.002c-0.07,0.008-0.138,0.018-0.208,0.026
	c-0.103,0.012-0.203,0.023-0.305,0.033c-0.101,0.011-0.204,0.021-0.307,0.028c0,0,0,0-0.002,0.002
	c-0.003-0.002-0.004-0.002-0.004-0.002c-0.115,0.01-0.23,0.018-0.345,0.028c-0.118,0.008-0.235,0.016-0.354,0.021
	c-0.04,0.002-0.08,0.004-0.12,0.006c-0.019,0-0.04,0.002-0.058,0.004c-0.06,0.002-0.118,0.004-0.176,0.006
	c-0.118,0.007-0.236,0.009-0.354,0.013c-0.076,0-0.155,0-0.232,0c-0.035,0.002-0.07,0.002-0.106,0.002
	c-0.034,0.002-0.07,0.002-0.105,0.002c-0.147,0-0.295,0-0.442-0.004c-0.07,0-0.138-0.004-0.208-0.004
	c-0.032-0.002-0.066-0.004-0.098-0.007c-0.045,0.003-0.092,0-0.138-0.002c-0.147-0.006-0.293-0.012-0.443-0.021
	c-0.034,0-0.069-0.006-0.103-0.008c-0.213-0.015-0.426-0.032-0.64-0.05c-0.077-0.004-0.157-0.011-0.236-0.019
	c-0.017-0.004-0.032-0.004-0.047-0.004c-0.308-0.034-0.612-0.069-0.916-0.111c-0.006-0.002-0.009-0.002-0.014-0.005
	c-0.04-0.006-0.078-0.012-0.118-0.018c-0.235-0.036-0.469-0.072-0.702-0.116c-0.027-0.004-0.053-0.01-0.08-0.014
	c-0.023-0.004-0.047-0.006-0.072-0.012c-0.083-0.019-0.164-0.036-0.247-0.052c-0.199-0.04-0.397-0.082-0.595-0.122
	c-0.041-0.01-0.082-0.016-0.122-0.028c-0.047-0.01-0.093-0.02-0.141-0.034c-0.045-0.01-0.092-0.02-0.139-0.029
	c-0.047-0.012-0.095-0.024-0.14-0.034c-0.047-0.014-0.094-0.026-0.141-0.038c-0.009,0-0.018-0.004-0.029-0.008
	c-0.292-0.076-0.584-0.158-0.875-0.246c-0.022-0.006-0.045-0.012-0.069-0.018c-0.079-0.026-0.158-0.056-0.236-0.08
	c-0.197-0.062-0.395-0.126-0.591-0.193c-0.044-0.017-0.089-0.028-0.134-0.044c-0.071-0.028-0.143-0.057-0.214-0.084
	c-0.183-0.064-0.367-0.134-0.55-0.208c-0.061-0.021-0.122-0.044-0.182-0.067c-0.053-0.021-0.107-0.046-0.159-0.068
	c-0.185-0.076-0.37-0.156-0.554-0.235c-0.071-0.032-0.145-0.062-0.217-0.097c-0.058-0.025-0.115-0.054-0.172-0.081
	c-0.032-0.017-0.065-0.03-0.097-0.046c-0.043-0.021-0.087-0.04-0.131-0.061c-0.135-0.065-0.266-0.132-0.397-0.197
	c-0.047-0.024-0.095-0.05-0.142-0.074c-0.017-0.01-0.037-0.018-0.053-0.028c-0.018-0.008-0.034-0.018-0.053-0.027
	c-0.047-0.026-0.096-0.05-0.146-0.074c-0.129-0.069-0.259-0.142-0.388-0.214c-0.046-0.025-0.089-0.052-0.134-0.076
	c-0.023-0.014-0.046-0.027-0.069-0.041c-0.033-0.019-0.068-0.038-0.102-0.059c-0.102-0.056-0.202-0.113-0.303-0.176
	c-0.101-0.062-0.199-0.122-0.299-0.186c-0.1-0.062-0.198-0.124-0.296-0.188c-0.085-0.059-0.17-0.114-0.254-0.17
	c-0.051-0.036-0.101-0.068-0.152-0.102c-0.012-0.011-0.024-0.019-0.037-0.028c-0.021-0.014-0.043-0.028-0.062-0.04
	c-0.084-0.06-0.168-0.12-0.249-0.178c-0.082-0.058-0.166-0.118-0.248-0.18c-0.037-0.026-0.073-0.054-0.111-0.082
	c-0.01-0.008-0.02-0.014-0.029-0.02c-0.028-0.022-0.056-0.042-0.082-0.062c-0.074-0.056-0.146-0.111-0.22-0.17
	c-0.074-0.058-0.146-0.113-0.218-0.174c-0.045-0.035-0.087-0.069-0.132-0.107c-0.008-0.006-0.017-0.014-0.026-0.022
	c-0.019-0.014-0.038-0.029-0.059-0.046c-0.066-0.056-0.132-0.111-0.198-0.165c-0.066-0.057-0.131-0.114-0.199-0.172
	c-0.064-0.057-0.127-0.112-0.191-0.168c0-0.002-0.002-0.004-0.004-0.004c-0.065-0.061-0.129-0.118-0.192-0.174
	c-0.061-0.056-0.121-0.112-0.181-0.17c-0.061-0.056-0.12-0.114-0.179-0.17C10,69.276,9.978,69.256,9.958,69.234
	c-0.008-0.007-0.015-0.015-0.022-0.021c-0.03-0.03-0.06-0.06-0.09-0.088C9.788,69.068,9.73,69.01,9.67,68.948
	c-0.027-0.026-0.055-0.056-0.083-0.086c-0.028-0.025-0.055-0.056-0.083-0.084c-0.027-0.029-0.056-0.06-0.083-0.088
	c-0.027-0.029-0.055-0.06-0.082-0.088c-0.027-0.029-0.057-0.062-0.084-0.092c-0.029-0.03-0.056-0.062-0.084-0.09
	c-0.026-0.028-0.054-0.06-0.081-0.09c-0.028-0.03-0.056-0.06-0.082-0.092c-0.02-0.022-0.036-0.04-0.054-0.062
	c-0.009-0.011-0.02-0.022-0.028-0.032c-0.024-0.028-0.05-0.059-0.075-0.086c-0.027-0.032-0.054-0.064-0.081-0.096
	c-0.005-0.009-0.012-0.015-0.019-0.022c-0.018-0.02-0.036-0.042-0.053-0.063c-0.043-0.05-0.084-0.101-0.126-0.152
	c-0.005-0.006-0.01-0.01-0.016-0.018C8.553,67.702,8.55,67.7,8.547,67.696c-0.05-0.061-0.1-0.122-0.148-0.183
	c-0.047-0.06-0.096-0.121-0.143-0.182c-0.01-0.014-0.018-0.023-0.028-0.036c-0.004-0.006-0.01-0.014-0.015-0.02
	c-0.009-0.012-0.019-0.026-0.029-0.04c-0.023-0.028-0.048-0.06-0.071-0.092c-0.047-0.06-0.093-0.122-0.138-0.184
	c-0.035-0.048-0.071-0.098-0.105-0.148c-0.004-0.004-0.01-0.012-0.013-0.018c-0.005-0.006-0.011-0.014-0.017-0.021
	c-0.036-0.053-0.073-0.104-0.107-0.154c-0.004-0.006-0.006-0.01-0.011-0.014c-0.005-0.008-0.011-0.017-0.017-0.024
	c-0.043-0.063-0.087-0.128-0.131-0.191c-0.01-0.017-0.019-0.028-0.028-0.042c-0.006-0.008-0.011-0.019-0.018-0.028
	c-0.027-0.042-0.055-0.082-0.082-0.124c-0.043-0.065-0.085-0.132-0.127-0.197c-0.013-0.02-0.026-0.042-0.04-0.064
	c-0.006-0.01-0.012-0.018-0.017-0.027c-0.003-0.004-0.007-0.01-0.011-0.014c-0.009-0.019-0.017-0.03-0.027-0.044
	c-0.01-0.019-0.02-0.032-0.03-0.049c-0.041-0.065-0.082-0.134-0.122-0.201c-0.038-0.068-0.079-0.136-0.117-0.202
	c-0.002-0.006-0.005-0.01-0.009-0.014c-0.027-0.052-0.056-0.1-0.083-0.152c-0.003-0.004-0.006-0.008-0.009-0.014
	c-0.004-0.008-0.009-0.018-0.015-0.025c-0.038-0.07-0.077-0.143-0.115-0.212c-0.008-0.015-0.015-0.03-0.022-0.04
	c-0.004-0.012-0.008-0.019-0.013-0.026c-0.005-0.014-0.012-0.023-0.018-0.036c-0.02-0.039-0.041-0.075-0.061-0.115
	c-0.038-0.072-0.073-0.144-0.109-0.214c-0.004-0.008-0.007-0.016-0.012-0.024c-0.002-0.008-0.007-0.016-0.01-0.023
	c-0.007-0.014-0.014-0.028-0.022-0.044C6.45,64.436,6.441,64.42,6.432,64.4c-0.011-0.022-0.023-0.046-0.034-0.07
	c-0.038-0.076-0.074-0.156-0.11-0.235c-0.019-0.04-0.038-0.086-0.057-0.126c-0.008-0.021-0.017-0.038-0.025-0.059
	c-0.007-0.018-0.016-0.035-0.024-0.052c-0.007-0.018-0.013-0.031-0.02-0.046c-0.004-0.012-0.008-0.02-0.013-0.031
	c-0.022-0.055-0.046-0.108-0.068-0.16c-0.021-0.054-0.043-0.108-0.064-0.16c-0.005-0.012-0.011-0.021-0.015-0.036
	c-0.005-0.014-0.012-0.029-0.018-0.044c-0.034-0.086-0.067-0.174-0.1-0.262c-0.005-0.012-0.01-0.023-0.014-0.035
	c0-0.004-0.001-0.006-0.002-0.009c-0.001-0.002-0.002-0.006-0.003-0.01c-0.011-0.029-0.021-0.058-0.033-0.088
	c-0.005-0.021-0.013-0.04-0.02-0.06c-0.008-0.022-0.016-0.04-0.024-0.062c-0.03-0.09-0.061-0.18-0.089-0.268
	c-0.013-0.037-0.024-0.073-0.036-0.111c-0.008-0.022-0.015-0.042-0.021-0.064c-0.008-0.025-0.016-0.05-0.023-0.075l-0.001-0.002
	c-0.001-0.002-0.003-0.009-0.005-0.015c-0.031-0.102-0.061-0.203-0.089-0.304C5.519,62,5.513,61.983,5.51,61.966
	c-0.007-0.025-0.013-0.05-0.02-0.073c-0.017-0.062-0.034-0.124-0.051-0.187c-0.007-0.029-0.014-0.06-0.021-0.088
	c-0.006-0.02-0.01-0.04-0.014-0.056c-0.007-0.03-0.016-0.062-0.023-0.094c-0.003-0.014-0.008-0.03-0.011-0.046
	c-0.002-0.008-0.006-0.019-0.007-0.028c-0.024-0.102-0.047-0.205-0.069-0.312c-0.007-0.03-0.012-0.06-0.018-0.092
	c-0.005-0.02-0.011-0.04-0.015-0.06c-0.002-0.013-0.003-0.026-0.005-0.036c-0.005-0.03-0.011-0.062-0.018-0.094
	c-0.006-0.034-0.015-0.068-0.021-0.106c-0.022-0.128-0.045-0.258-0.065-0.39c-0.008-0.052-0.013-0.104-0.021-0.155
	c-0.005-0.032-0.01-0.068-0.014-0.1c-0.006-0.044-0.013-0.09-0.018-0.136c-0.001-0.002-0.001-0.005-0.002-0.007
	c0.001,0,0.001,0,0.001-0.002c-0.016-0.128-0.029-0.255-0.041-0.381c-0.002-0.028-0.003-0.052-0.005-0.08
	c-0.012-0.134-0.019-0.268-0.026-0.401c-0.006-0.084-0.011-0.166-0.014-0.25c-0.002-0.05-0.005-0.102-0.006-0.149
	c-0.007-0.254-0.007-0.504,0.001-0.755c0-0.009,0-0.019,0-0.026c0-0.006,0.001-0.012,0-0.016c0.001-0.005,0.001-0.009,0.001-0.013
	c0-0.036,0.005-0.071,0.006-0.107c0.009-0.206,0.02-0.412,0.038-0.613c0.002-0.022,0.005-0.044,0.008-0.066
	c0.005-0.044,0.011-0.09,0.014-0.132c0.003-0.021,0.002-0.042,0.004-0.062c0.006-0.054,0.018-0.107,0.024-0.16
	c0.02-0.149,0.038-0.295,0.061-0.441c0.005-0.033,0.007-0.065,0.013-0.098c0.009-0.06,0.025-0.12,0.035-0.18
	c0.014-0.076,0.027-0.149,0.042-0.222c0.02-0.098,0.041-0.196,0.063-0.294c0.023-0.107,0.05-0.216,0.077-0.323
	c0.024-0.092,0.044-0.184,0.069-0.275c0.011-0.04,0.025-0.078,0.036-0.116c0.008-0.024,0.015-0.048,0.022-0.072
	c0.016-0.058,0.03-0.115,0.046-0.172c0.016-0.05,0.036-0.098,0.051-0.146c0.042-0.128,0.083-0.256,0.129-0.382
	c0.022-0.063,0.044-0.127,0.067-0.191c0.026-0.065,0.051-0.132,0.078-0.199c0.063-0.16,0.13-0.316,0.199-0.474
	c0.031-0.07,0.058-0.145,0.089-0.214l5.786-12.563c0.019-0.042,0.039-0.084,0.058-0.126c0.002-0.002,0.002-0.004,0.004-0.006
	c0,0-0.001-0.001,0-0.002c0.022-0.044,0.043-0.09,0.065-0.135c0.021-0.043,0.044-0.089,0.067-0.134
	c0.021-0.044,0.043-0.089,0.067-0.133c0.029-0.055,0.059-0.108,0.087-0.162c0.014-0.025,0.026-0.049,0.04-0.073
	c0.008-0.014,0.014-0.027,0.021-0.04c0.009-0.015,0.015-0.029,0.024-0.044c0.058-0.106,0.12-0.21,0.182-0.314
	c0.027-0.047,0.056-0.092,0.085-0.139c0.009-0.014,0.016-0.029,0.024-0.043c0.007-0.011,0.017-0.022,0.023-0.034
	c0.02-0.032,0.039-0.064,0.058-0.096c0.014-0.021,0.028-0.04,0.04-0.059c0.004-0.007,0.007-0.014,0.012-0.021
	c0.006-0.01,0.014-0.019,0.02-0.028c0.044-0.067,0.086-0.134,0.132-0.2c0.031-0.046,0.062-0.092,0.095-0.137
	c0.009-0.012,0.017-0.024,0.026-0.036c0.016-0.022,0.03-0.045,0.046-0.067c0.056-0.081,0.114-0.16,0.174-0.238
	c0.008-0.01,0.016-0.021,0.025-0.032c0.004-0.007,0.01-0.013,0.014-0.02c0.047-0.061,0.092-0.122,0.141-0.183
	c0.003-0.005,0.007-0.009,0.01-0.014c0.008-0.009,0.016-0.018,0.023-0.027c0.051-0.063,0.101-0.126,0.152-0.19
	c0.055-0.066,0.11-0.132,0.166-0.199c0.024-0.028,0.049-0.055,0.073-0.083c0.002-0.004,0.007-0.007,0.008-0.01
	c0.004-0.004,0.007-0.007,0.01-0.01c0.012-0.015,0.023-0.028,0.036-0.041c0.005-0.006,0.009-0.011,0.014-0.017
	c0.01-0.012,0.021-0.024,0.031-0.036c0.058-0.065,0.116-0.129,0.176-0.193c0.059-0.064,0.12-0.128,0.18-0.192
	c0.032-0.034,0.065-0.066,0.098-0.099c0.009-0.01,0.019-0.018,0.028-0.027c0.014-0.015,0.029-0.03,0.043-0.043
	c0.007-0.01,0.016-0.017,0.023-0.024c0.006-0.006,0.012-0.012,0.018-0.018c0.043-0.043,0.087-0.086,0.13-0.129
	c0.06-0.057,0.119-0.112,0.177-0.167c0.041-0.037,0.083-0.074,0.125-0.112c0.007-0.008,0.016-0.016,0.025-0.024
	c0.011-0.008,0.021-0.019,0.03-0.028c0.058-0.051,0.114-0.1,0.172-0.151c0.01-0.008,0.021-0.018,0.031-0.025
	c0.002-0.002,0.004-0.004,0.006-0.006c0.004-0.003,0.005-0.006,0.009-0.008c0.042-0.037,0.085-0.073,0.129-0.11
	c0.058-0.049,0.118-0.098,0.178-0.148c0.004-0.002,0.007-0.005,0.012-0.009c0-0.001,0.002,0,0.003-0.002
	c0.055-0.044,0.11-0.089,0.167-0.133c0.058-0.045,0.116-0.091,0.175-0.136c0.028-0.021,0.057-0.042,0.085-0.063
	c0.007-0.006,0.015-0.011,0.024-0.018c0.023-0.017,0.046-0.035,0.069-0.053c0.027-0.019,0.054-0.038,0.081-0.058
	c0.008-0.006,0.019-0.013,0.026-0.021c0.025-0.017,0.05-0.036,0.075-0.053c0.061-0.044,0.123-0.086,0.186-0.129
	c0.03-0.021,0.062-0.043,0.093-0.065c0.032-0.021,0.064-0.043,0.096-0.065c0.032-0.021,0.064-0.042,0.096-0.063
	c0.033-0.02,0.064-0.042,0.097-0.063c0.03-0.02,0.061-0.039,0.092-0.059c0.03-0.02,0.062-0.039,0.092-0.059
	c0.033-0.019,0.063-0.039,0.094-0.058c0.03-0.019,0.061-0.039,0.091-0.057c0.064-0.038,0.128-0.076,0.191-0.113
	c0.04-0.024,0.081-0.047,0.12-0.07c0.005-0.004,0.011-0.007,0.019-0.01c0.017-0.011,0.035-0.021,0.054-0.032
	c0.064-0.036,0.128-0.072,0.193-0.108c0.064-0.035,0.129-0.07,0.194-0.104s0.131-0.068,0.197-0.103
	c0.017-0.009,0.035-0.017,0.051-0.025c0.007-0.004,0.015-0.008,0.023-0.012c0.042-0.021,0.083-0.041,0.125-0.062
	c0.066-0.032,0.132-0.064,0.2-0.096c0.066-0.031,0.133-0.063,0.202-0.094c0.06-0.028,0.122-0.057,0.184-0.083
	c0.001-0.001,0.005-0.003,0.008-0.003c0.004-0.002,0.009-0.004,0.014-0.007c0.068-0.03,0.138-0.061,0.207-0.089
	c0.069-0.029,0.139-0.058,0.208-0.088c0.07-0.028,0.141-0.056,0.209-0.083c0.027-0.011,0.053-0.021,0.079-0.031
	c0.004-0.001,0.008-0.003,0.013-0.005c0.003-0.019,0.004-0.039,0.007-0.059c0.002-0.005,0.001-0.012,0.002-0.019
	c0.001-0.001,0.002-0.003,0.001-0.003c0.003-0.021,0.009-0.042,0.013-0.063c0.027-0.155,0.061-0.31,0.097-0.465
	c0.002-0.012,0.004-0.024,0.008-0.036c0.015-0.067,0.037-0.134,0.054-0.201c0.006-0.019,0.008-0.04,0.013-0.059
	c0.005-0.016,0.012-0.032,0.017-0.048c0.017-0.062,0.034-0.124,0.054-0.186c0.014-0.048,0.031-0.094,0.046-0.14
	c0.04-0.118,0.08-0.234,0.125-0.35c0.009-0.028,0.018-0.057,0.029-0.084l0.518-1.311c0,0,0-0.001,0-0.002
	c0.024-0.058,0.048-0.115,0.074-0.173c0.001-0.008,0.005-0.016,0.008-0.024c0.003-0.005,0.004-0.011,0.008-0.017
	c0.03-0.071,0.062-0.143,0.096-0.213c0.019-0.043,0.041-0.086,0.06-0.128c0.004-0.007,0.007-0.015,0.01-0.022
	c0.004-0.008,0.01-0.017,0.014-0.026c0.005-0.012,0.01-0.022,0.015-0.034c0.036-0.07,0.07-0.14,0.107-0.209
	c0.019-0.034,0.038-0.066,0.056-0.101c0.011-0.018,0.02-0.035,0.029-0.052c0.009-0.016,0.017-0.031,0.025-0.047
	c0.013-0.022,0.027-0.045,0.04-0.066c0.004-0.007,0.006-0.013,0.009-0.018c0.003-0.007,0.008-0.012,0.013-0.019
	c0.018-0.031,0.037-0.063,0.055-0.094c0.017-0.027,0.035-0.056,0.051-0.083c0.007-0.009,0.012-0.021,0.019-0.031
	c0.005-0.01,0.012-0.018,0.018-0.026c0.011-0.018,0.024-0.038,0.036-0.057c0.042-0.066,0.084-0.129,0.129-0.193
	c0.006-0.009,0.014-0.019,0.02-0.029c0.003-0.007,0.008-0.012,0.012-0.019c0.008-0.011,0.015-0.021,0.022-0.032
	s0.017-0.025,0.026-0.035c0.008-0.014,0.016-0.025,0.024-0.038c0.037-0.049,0.073-0.098,0.111-0.148
	c0.037-0.049,0.074-0.099,0.113-0.148c0.002-0.001,0.004-0.005,0.006-0.007c0.005-0.006,0.01-0.012,0.016-0.018
	c0.018-0.024,0.038-0.048,0.057-0.071c0.003-0.003,0.004-0.006,0.007-0.009c0.001-0.003,0.003-0.005,0.006-0.007
	c0.009-0.011,0.017-0.021,0.025-0.033c0.036-0.042,0.07-0.083,0.106-0.124c0.024-0.029,0.049-0.057,0.073-0.085
	c0.005-0.006,0.01-0.011,0.015-0.017c0.006-0.008,0.011-0.014,0.019-0.021c0.035-0.041,0.071-0.081,0.109-0.122
	c0.024-0.026,0.049-0.052,0.075-0.079c0.005-0.005,0.01-0.01,0.015-0.016c0.008-0.007,0.016-0.016,0.024-0.025
	c0.018-0.02,0.037-0.038,0.057-0.058c0.006-0.007,0.014-0.015,0.021-0.021c0.008-0.009,0.018-0.019,0.026-0.027
	c0.036-0.035,0.071-0.07,0.107-0.106c0.036-0.035,0.072-0.069,0.109-0.105c0.024-0.021,0.047-0.043,0.072-0.065
	c0.006-0.007,0.014-0.013,0.022-0.02c0.005-0.005,0.011-0.011,0.018-0.017c0.003-0.003,0.008-0.006,0.01-0.009
	s0.004-0.004,0.006-0.007c0.003-0.002,0.006-0.004,0.008-0.005c0.026-0.024,0.054-0.049,0.081-0.073
	c0.035-0.032,0.072-0.063,0.109-0.093c0.036-0.031,0.073-0.062,0.109-0.092c0.003-0.001,0.003-0.001,0.003-0.003
	c0.005-0.002,0.008-0.005,0.01-0.007c0.035-0.028,0.066-0.054,0.101-0.08c0.034-0.028,0.068-0.055,0.104-0.083
	c0.001,0,0.003-0.002,0.005-0.003c0.035-0.028,0.072-0.057,0.108-0.083c0.016-0.012,0.032-0.023,0.047-0.034
	c0.008-0.005,0.014-0.011,0.023-0.016c0.013-0.01,0.027-0.02,0.042-0.031c0.038-0.027,0.076-0.055,0.114-0.081
	c0.019-0.014,0.037-0.026,0.058-0.041c0.019-0.013,0.039-0.026,0.059-0.04c0.019-0.012,0.039-0.026,0.059-0.04
	c0.019-0.013,0.038-0.025,0.059-0.039c0.018-0.013,0.037-0.024,0.056-0.037c0.02-0.012,0.039-0.024,0.058-0.037
	c0.018-0.011,0.038-0.023,0.057-0.035s0.036-0.024,0.056-0.037c0.038-0.023,0.077-0.045,0.116-0.07
	c0.022-0.013,0.044-0.025,0.066-0.04c0.009-0.004,0.016-0.009,0.024-0.013c0.009-0.005,0.018-0.011,0.026-0.016
	c0.04-0.023,0.078-0.045,0.119-0.067c0.039-0.021,0.079-0.043,0.118-0.065s0.081-0.042,0.121-0.064
	c0.008-0.003,0.017-0.008,0.026-0.013c0.007-0.004,0.015-0.008,0.024-0.012c0.023-0.012,0.046-0.024,0.071-0.037
	c0.039-0.02,0.081-0.041,0.122-0.061c0.039-0.02,0.08-0.039,0.121-0.058c0.038-0.017,0.075-0.036,0.114-0.052c0,0,0,0,0-0.001
	c0.004-0.001,0.008-0.002,0.012-0.005c0.042-0.019,0.085-0.038,0.125-0.055c0.043-0.019,0.084-0.037,0.127-0.055
	c0.042-0.017,0.084-0.035,0.127-0.052c0.016-0.006,0.032-0.013,0.046-0.019c0.009-0.003,0.019-0.007,0.027-0.011
	c0.019-0.007,0.038-0.016,0.058-0.022c0.044-0.017,0.087-0.034,0.132-0.05c0.043-0.016,0.088-0.033,0.132-0.047
	c0.04-0.014,0.081-0.027,0.121-0.042c0,0,0.002-0.001,0.001-0.001c0.003,0,0.007-0.002,0.009-0.002
	c0.048-0.017,0.094-0.032,0.141-0.046c0.047-0.015,0.096-0.03,0.142-0.044c0.046-0.015,0.094-0.029,0.142-0.042
	c0.007-0.002,0.014-0.003,0.021-0.007c0.008-0.001,0.016-0.004,0.023-0.006c0.032-0.009,0.064-0.018,0.097-0.028
	c0.051-0.014,0.102-0.026,0.154-0.04c0.052-0.014,0.104-0.027,0.155-0.039c0.011-0.002,0.025-0.006,0.038-0.007
	c0.01-0.003,0.022-0.006,0.032-0.008c0.028-0.007,0.059-0.014,0.087-0.021c0.052-0.012,0.104-0.022,0.156-0.033
	c0.058-0.012,0.114-0.023,0.172-0.034c0.009-0.001,0.02-0.002,0.029-0.005c0.004,0,0.01-0.001,0.014-0.002
	c0.008-0.002,0.014-0.002,0.022-0.004c0.035-0.006,0.072-0.014,0.108-0.021c0.058-0.009,0.116-0.018,0.174-0.027
	c0.056-0.009,0.113-0.017,0.171-0.025c0.006,0,0.012-0.001,0.019-0.001c0.061-0.01,0.123-0.017,0.186-0.024
	c0.066-0.008,0.133-0.015,0.201-0.022c0.021-0.002,0.043-0.003,0.064-0.006c0.015,0,0.03-0.002,0.044-0.003
	c0.031-0.003,0.062-0.006,0.093-0.008c0.065-0.004,0.134-0.011,0.202-0.014c0.043-0.003,0.089-0.004,0.134-0.006
	c0.02,0,0.04-0.002,0.059-0.002c0.02,0,0.039-0.002,0.06-0.003c0.085-0.002,0.169-0.005,0.252-0.006c0.04,0,0.079,0.001,0.118,0.001
	c0.019,0,0.039,0,0.06-0.001c0.025,0.001,0.051,0.001,0.075,0.002c0.085,0.001,0.17,0.003,0.253,0.006
	c0.019,0.001,0.039,0.002,0.058,0.003c0.125,0.005,0.25,0.014,0.376,0.024c0.041,0.003,0.084,0.004,0.126,0.007
	c0.009,0.001,0.018,0.002,0.026,0.002c0.177,0.017,0.351,0.037,0.526,0.062c0.002,0,0.004,0,0.006,0.001
	c0.019,0.002,0.037,0.005,0.055,0.009c0.138,0.021,0.276,0.042,0.414,0.066c0.016,0.004,0.032,0.008,0.05,0.011
	c0.012,0.002,0.024,0.003,0.036,0.005c0.045,0.01,0.09,0.021,0.134,0.03c0.116,0.023,0.23,0.048,0.344,0.074
	c0.023,0.006,0.049,0.012,0.073,0.017c0.027,0.006,0.053,0.014,0.08,0.021s0.052,0.014,0.079,0.021
	c0.026,0.006,0.053,0.013,0.08,0.021c0.026,0.006,0.051,0.015,0.077,0.022c0.174,0.047,0.345,0.102,0.517,0.159
	c0.012,0.004,0.025,0.007,0.038,0.011c0.041,0.013,0.08,0.03,0.122,0.044c0.116,0.04,0.232,0.083,0.346,0.127
	c0.024,0.009,0.05,0.018,0.072,0.027c0.039,0.014,0.076,0.032,0.113,0.048c0.108,0.045,0.213,0.089,0.318,0.137
	c0.033,0.015,0.067,0.027,0.1,0.042c0.028,0.013,0.055,0.029,0.083,0.042c0.105,0.05,0.209,0.103,0.314,0.156
	c0.041,0.02,0.079,0.038,0.12,0.059c0.031,0.015,0.062,0.034,0.093,0.049c0.019,0.011,0.038,0.022,0.057,0.032
	c0.023,0.013,0.047,0.025,0.071,0.039c0.074,0.041,0.147,0.083,0.219,0.126c0.027,0.016,0.052,0.031,0.077,0.046
	c0.01,0.006,0.021,0.011,0.03,0.017c0.011,0.006,0.021,0.014,0.031,0.02c0.026,0.016,0.052,0.032,0.079,0.048
	c0.071,0.044,0.143,0.09,0.211,0.136c0.024,0.016,0.047,0.031,0.07,0.047c0.013,0.008,0.027,0.017,0.04,0.027
	c0.02,0.013,0.038,0.024,0.058,0.037c0.055,0.039,0.11,0.078,0.165,0.116c0.051,0.037,0.103,0.075,0.155,0.113
	c0.003,0.001,0.005,0.003,0.007,0.005c0.053,0.041,0.107,0.08,0.16,0.122c0.046,0.035,0.09,0.07,0.138,0.107
	c0.022,0.02,0.046,0.04,0.07,0.06c0.01,0.008,0.02,0.016,0.028,0.022c0.012,0.009,0.024,0.019,0.034,0.028
	c0.045,0.037,0.09,0.073,0.134,0.111c0.043,0.038,0.088,0.076,0.131,0.116c0.018,0.016,0.037,0.032,0.054,0.048
	c0.005,0.005,0.01,0.01,0.017,0.014c0.015,0.015,0.032,0.029,0.046,0.043c0.04,0.037,0.078,0.072,0.117,0.109
	c0.038,0.037,0.076,0.073,0.115,0.109c0.02,0.021,0.04,0.041,0.059,0.06c0.007,0.007,0.015,0.015,0.022,0.021
	c0.01,0.011,0.02,0.021,0.031,0.031c0.035,0.035,0.069,0.071,0.103,0.106c0.035,0.036,0.069,0.072,0.103,0.109
	c0.033,0.036,0.067,0.073,0.1,0.11c0.033,0.036,0.066,0.072,0.099,0.11c0.031,0.035,0.062,0.07,0.092,0.106
	c0.031,0.037,0.061,0.072,0.092,0.109c0.011,0.013,0.022,0.026,0.031,0.04c0.004,0.003,0.006,0.007,0.009,0.011
	c0.018,0.02,0.032,0.04,0.048,0.06c0.029,0.037,0.059,0.074,0.088,0.11c0.014,0.019,0.028,0.037,0.042,0.055
	s0.027,0.037,0.041,0.055s0.029,0.036,0.041,0.054c0.014,0.018,0.027,0.038,0.042,0.056c0.014,0.019,0.028,0.038,0.041,0.057
	c0.015,0.019,0.028,0.038,0.042,0.058c0.014,0.019,0.027,0.038,0.042,0.057c0.013,0.019,0.026,0.038,0.039,0.057
	c0.026,0.038,0.051,0.075,0.076,0.112c0.015,0.019,0.027,0.038,0.039,0.059c0.002,0.003,0.005,0.006,0.006,0.011
	c0.011,0.013,0.021,0.029,0.031,0.044c0.025,0.037,0.049,0.075,0.072,0.114c0.024,0.038,0.047,0.076,0.07,0.114
	c0.004,0.006,0.007,0.011,0.012,0.016c0,0.004,0.002,0.007,0.005,0.01c0.018,0.03,0.036,0.059,0.052,0.088
	c0.004,0.005,0.006,0.011,0.009,0.017c0.002,0.003,0.005,0.006,0.007,0.009c0.018,0.029,0.035,0.059,0.052,0.089
	c0.021,0.038,0.044,0.076,0.064,0.115c0.006,0.011,0.012,0.021,0.018,0.031c0.001,0.002,0.002,0.004,0.003,0.006
	c0.014,0.028,0.029,0.052,0.042,0.079c0.016,0.029,0.032,0.059,0.046,0.088c0.002,0.002,0.004,0.005,0.007,0.008
	c0.002,0.008,0.006,0.015,0.01,0.022c0.02,0.04,0.041,0.08,0.06,0.119c0.007,0.013,0.012,0.026,0.019,0.039
	c0.002,0.002,0.002,0.005,0.002,0.006c0,0.001,0.001,0.003,0.002,0.004c0.011,0.023,0.023,0.048,0.036,0.071
	c0.018,0.04,0.036,0.081,0.056,0.122c0.003,0.01,0.01,0.021,0.016,0.032c0.001,0.006,0.004,0.01,0.005,0.015
	c0.012,0.025,0.023,0.051,0.034,0.076c0.018,0.041,0.036,0.083,0.054,0.124c0.017,0.042,0.035,0.083,0.052,0.125
	c0.013,0.03,0.024,0.061,0.036,0.091c0.001,0.004,0.003,0.007,0.005,0.012c0.002,0.007,0.006,0.014,0.008,0.022
	c0.005,0.012,0.009,0.026,0.016,0.039c0.001,0.003,0.003,0.007,0.004,0.011c0.009,0.027,0.02,0.054,0.03,0.081
	c0.017,0.043,0.033,0.087,0.048,0.131c0.016,0.043,0.03,0.087,0.046,0.131c0,0.003,0.003,0.007,0.002,0.011
	c0.002,0.001,0.002,0.005,0.003,0.007c0.013,0.039,0.024,0.076,0.037,0.113c0.016,0.048,0.032,0.096,0.044,0.145
	c0.013,0.038,0.024,0.079,0.036,0.118c0,0.001,0.001,0.003,0.001,0.004c0,0.002,0,0.003,0,0.004c0.002,0.004,0.004,0.01,0.005,0.016
	c0.002,0.008,0.005,0.016,0.007,0.024c0.001,0.008,0.002,0.012,0.006,0.019c0.008,0.033,0.017,0.067,0.026,0.101
	c0.012,0.048,0.023,0.095,0.035,0.143c0.014,0.054,0.026,0.106,0.038,0.159c0.001,0.007,0.003,0.014,0.004,0.021
	c0.001,0.001,0.002,0.002,0.002,0.004c0,0.002,0.001,0.004,0.001,0.006c0.009,0.042,0.018,0.084,0.026,0.126
	s0.018,0.083,0.024,0.124c0.001,0.004,0.001,0.007,0.003,0.01c0,0.008,0.002,0.018,0.004,0.025c0.008,0.046,0.016,0.092,0.024,0.139
	c0,0.003,0.001,0.007,0.001,0.01c0.001,0.003,0,0.005,0.001,0.009c0.011,0.062,0.02,0.123,0.029,0.183
	c0.007,0.062,0.016,0.123,0.024,0.184c0,0.016,0.002,0.031,0.004,0.045c0,0.011,0.002,0.022,0.003,0.032
	c0.004,0.036,0.008,0.071,0.012,0.105c0,0.005,0,0.009,0.001,0.014c0,0.001,0,0.003,0,0.005c0,0.002,0,0.004,0.001,0.005
	c0.004,0.053,0.009,0.106,0.013,0.159c0.003,0.033,0.003,0.065,0.007,0.098c0,0.021,0.001,0.041,0.003,0.061
	c0.001,0.022,0.004,0.047,0.004,0.07c0.004,0.075,0.006,0.151,0.007,0.228c0.001,0.027,0.001,0.055,0,0.083
	c0.001,0.014,0.002,0.027,0.002,0.041c0,0.006,0,0.014,0,0.021c0,0.027,0.001,0.055,0,0.083c-0.001,0.075-0.002,0.149-0.005,0.226
	c-0.001,0.028-0.002,0.055-0.004,0.084c0,0.005,0,0.01,0,0.014c0.001,0.002,0,0.006,0,0.008c-0.002,0.035-0.003,0.071-0.005,0.104
	c-0.002,0.037-0.004,0.071-0.008,0.107c-0.002,0.035-0.005,0.069-0.008,0.105c-0.041,0.466-0.081,0.932-0.123,1.398
	c-0.002,0.016-0.004,0.032-0.006,0.049c-0.008,0.1-0.022,0.201-0.036,0.301c-0.006,0.047-0.01,0.093-0.017,0.139
	c-0.001,0.009-0.002,0.018-0.003,0.026c-0.02,0.129-0.043,0.26-0.07,0.388c-0.004,0.02-0.006,0.039-0.011,0.059
	c0.001,0,0,0.003,0,0.004c0,0,0,0.001,0,0.002c-0.001,0.003-0.001,0.005-0.001,0.009c-0.006,0.024-0.013,0.047-0.017,0.071
	c-0.026,0.123-0.054,0.243-0.087,0.365c-0.003,0.011-0.007,0.025-0.011,0.039c-0.012,0.046-0.029,0.093-0.042,0.141
	c-0.015,0.048-0.027,0.095-0.042,0.144c0.022,0.023,0.043,0.046,0.065,0.069c0.051,0.057,0.102,0.115,0.152,0.173
	c0.052,0.058,0.101,0.117,0.151,0.174c0.016,0.019,0.031,0.038,0.046,0.058c0.008,0.009,0.018,0.018,0.026,0.027
	c0.025,0.033,0.05,0.062,0.075,0.094c0.049,0.059,0.098,0.118,0.146,0.179c0.024,0.029,0.048,0.058,0.069,0.087
	c0.023,0.029,0.047,0.058,0.07,0.087c0.022,0.03,0.046,0.058,0.069,0.088c0.022,0.03,0.045,0.06,0.067,0.089
	c0.023,0.031,0.045,0.062,0.069,0.093c0.022,0.03,0.044,0.061,0.068,0.092c0.021,0.03,0.045,0.062,0.068,0.092
	c0.021,0.031,0.043,0.063,0.066,0.093c0.029,0.042,0.058,0.083,0.086,0.124c0.006,0.009,0.012,0.017,0.017,0.026
	c0.007,0.01,0.015,0.021,0.022,0.032c0.02,0.028,0.039,0.057,0.059,0.086c0.007,0.008,0.013,0.019,0.019,0.027
	c0.015,0.023,0.031,0.044,0.046,0.067c0.041,0.06,0.08,0.123,0.118,0.183c0.02,0.031,0.04,0.06,0.059,0.091
	c0.008,0.011,0.015,0.023,0.022,0.035c0.012,0.018,0.024,0.038,0.036,0.056c0.039,0.062,0.077,0.122,0.113,0.185
	c0.004,0.009,0.011,0.018,0.016,0.028c0.003,0.003,0.005,0.007,0.007,0.011c0.029,0.049,0.059,0.1,0.087,0.147
	c0.011,0.021,0.025,0.042,0.037,0.064c0.006,0.011,0.013,0.021,0.019,0.032c0.017,0.031,0.034,0.06,0.051,0.09
	c0.035,0.062,0.069,0.123,0.103,0.185c0.025,0.045,0.05,0.091,0.073,0.136c0.002,0.006,0.007,0.012,0.01,0.019
	c0.006,0.012,0.012,0.024,0.019,0.036s0.013,0.026,0.02,0.037c0.001,0.002,0.003,0.005,0.003,0.007
	c0.003,0.003,0.003,0.007,0.006,0.011c0.023,0.045,0.047,0.09,0.07,0.136c0.033,0.063,0.064,0.128,0.096,0.192
	c0.031,0.064,0.062,0.126,0.091,0.192c0.008,0.016,0.017,0.031,0.022,0.049c0.005,0.008,0.01,0.017,0.013,0.026
	c0.019,0.041,0.038,0.081,0.056,0.122c0.03,0.065,0.059,0.132,0.089,0.197c0.016,0.041,0.033,0.08,0.05,0.12
	c0.003,0.01,0.01,0.022,0.014,0.033c0.005,0.016,0.013,0.031,0.019,0.047c0.02,0.045,0.039,0.092,0.056,0.14
	c0.004,0.006,0.006,0.014,0.009,0.021c0.005,0.013,0.01,0.024,0.016,0.036c0.027,0.07,0.054,0.139,0.08,0.208
	c0.007,0.018,0.013,0.034,0.019,0.051c0.006,0.016,0.011,0.03,0.016,0.043c0.014,0.039,0.028,0.078,0.042,0.115
	c0.025,0.069,0.05,0.14,0.073,0.209c0,0.004,0.002,0.007,0.003,0.013c0.002,0.004,0.005,0.012,0.006,0.016
	c0.018,0.051,0.035,0.103,0.051,0.153c0.001,0.004,0.001,0.007,0.003,0.011c0.001,0.001,0,0.002,0,0.004
	c0.001,0.004,0.003,0.01,0.004,0.013c0.004,0.014,0.008,0.027,0.013,0.042l3.338,0.402c0.857-1.324,2.393-2.217,4.163-2.217
	s3.306,0.893,4.163,2.217l3.339-0.402c0.005-0.014,0.008-0.028,0.013-0.042c0.001-0.004,0.003-0.009,0.002-0.014
	c0.003-0.001,0.002-0.004,0.002-0.005c0.001-0.004,0.005-0.008,0.003-0.01c0.017-0.051,0.036-0.102,0.053-0.153
	c0-0.004,0.002-0.01,0.002-0.016c0.005-0.004,0.005-0.01,0.006-0.013c0.023-0.07,0.048-0.139,0.073-0.208
	c0.014-0.039,0.029-0.077,0.043-0.117c0.005-0.014,0.01-0.028,0.016-0.042c0.007-0.016,0.011-0.035,0.019-0.051
	c0.025-0.069,0.053-0.138,0.08-0.208c0.004-0.012,0.01-0.025,0.014-0.036c0.004-0.007,0.008-0.015,0.01-0.021
	c0.021-0.049,0.036-0.095,0.058-0.141c0.006-0.016,0.014-0.031,0.02-0.049c0.004-0.008,0.01-0.02,0.014-0.031
	c0.016-0.04,0.033-0.079,0.049-0.12c0.029-0.065,0.06-0.132,0.088-0.198c0.021-0.041,0.038-0.081,0.058-0.122
	c0.004-0.008,0.006-0.018,0.012-0.026c0.008-0.017,0.014-0.033,0.021-0.05c0.03-0.063,0.063-0.127,0.096-0.191
	c0.028-0.064,0.06-0.128,0.093-0.193c0.022-0.045,0.047-0.09,0.07-0.135c0.001-0.004,0.003-0.008,0.007-0.011
	c0.001-0.002,0.002-0.005,0.003-0.008c0.007-0.012,0.013-0.024,0.02-0.037c0.007-0.012,0.013-0.024,0.019-0.035
	c0.005-0.008,0.009-0.014,0.01-0.021c0.024-0.043,0.047-0.09,0.072-0.135c0.035-0.062,0.069-0.124,0.104-0.187
	c0.017-0.029,0.033-0.06,0.052-0.089c0.007-0.011,0.012-0.02,0.018-0.032c0.013-0.021,0.024-0.043,0.036-0.064
	c0.029-0.048,0.058-0.099,0.088-0.147c0.001-0.005,0.005-0.008,0.006-0.012c0.006-0.009,0.011-0.018,0.018-0.026
	c0.037-0.062,0.074-0.123,0.113-0.184c0.011-0.02,0.023-0.039,0.035-0.058c0.007-0.012,0.015-0.022,0.023-0.034
	c0.018-0.032,0.036-0.062,0.057-0.092c0.039-0.061,0.08-0.121,0.12-0.183c0.016-0.023,0.028-0.045,0.046-0.067
	c0.006-0.009,0.012-0.019,0.02-0.029c0.018-0.029,0.037-0.058,0.057-0.085c0.009-0.011,0.016-0.022,0.023-0.031
	c0.006-0.009,0.011-0.018,0.018-0.026c0.027-0.042,0.058-0.084,0.086-0.124c0.022-0.032,0.044-0.062,0.067-0.094
	c0.021-0.031,0.042-0.062,0.066-0.092c0.022-0.031,0.043-0.062,0.068-0.093c0.021-0.031,0.046-0.062,0.069-0.092
	c0.021-0.03,0.043-0.06,0.066-0.088c0.021-0.031,0.045-0.06,0.068-0.089c0.021-0.031,0.045-0.059,0.068-0.088
	c0.024-0.029,0.045-0.06,0.07-0.087c0.047-0.061,0.095-0.121,0.145-0.18c0.024-0.031,0.049-0.061,0.075-0.092
	c0.008-0.009,0.015-0.019,0.023-0.029c0.018-0.018,0.033-0.038,0.048-0.057c0.051-0.057,0.101-0.116,0.151-0.173
	c0.052-0.059,0.103-0.118,0.152-0.174c0.021-0.022,0.042-0.046,0.064-0.07c-0.014-0.046-0.028-0.095-0.041-0.141
	c-0.015-0.049-0.03-0.096-0.042-0.142c-0.004-0.015-0.006-0.026-0.013-0.041c-0.03-0.12-0.058-0.241-0.087-0.363
	c-0.004-0.023-0.009-0.047-0.017-0.071c0-0.003-0.002-0.006,0-0.008c0,0-0.002-0.002-0.002-0.003s0-0.003,0-0.004
	c-0.004-0.019-0.005-0.038-0.012-0.058c-0.025-0.129-0.046-0.259-0.067-0.389c-0.002-0.008-0.006-0.018-0.004-0.025
	c-0.009-0.047-0.013-0.093-0.018-0.139c-0.015-0.102-0.027-0.201-0.037-0.302c0.001-0.017-0.003-0.032-0.003-0.048
	c-0.041-0.466-0.084-0.933-0.124-1.398c-0.003-0.035-0.006-0.07-0.008-0.105s-0.005-0.07-0.006-0.106
	c-0.002-0.034-0.007-0.07-0.007-0.104c-0.001-0.003,0-0.005-0.001-0.009c0-0.004,0.001-0.009-0.002-0.014
	c-0.001-0.028,0-0.057-0.003-0.084c-0.003-0.076-0.003-0.151-0.006-0.227c0-0.027,0.002-0.055,0.001-0.083
	c0.001-0.007,0.001-0.013,0.001-0.02c-0.001-0.014-0.001-0.027,0-0.041c-0.001-0.027-0.001-0.056,0.001-0.083
	c0.002-0.075,0.004-0.152,0.006-0.227c0.004-0.024,0.006-0.047,0.008-0.07c0.001-0.021,0.001-0.041,0.003-0.061
	c0-0.033,0.002-0.066,0.006-0.098c0.004-0.052,0.008-0.105,0.014-0.158c-0.001-0.002-0.002-0.004-0.002-0.007
	c0.001-0.001,0.002-0.002,0.003-0.004c-0.001-0.006,0-0.01-0.001-0.014c0.003-0.036,0.008-0.07,0.012-0.105
	c0.001-0.01,0.004-0.021,0.006-0.031c0-0.017,0.002-0.031,0.004-0.046c0.007-0.061,0.015-0.123,0.023-0.183
	c0.008-0.061,0.019-0.123,0.027-0.183c0.001-0.003,0.002-0.006,0.003-0.009c-0.002-0.003,0-0.007,0.001-0.01
	c0.007-0.047,0.015-0.094,0.022-0.14c0.002-0.008,0.006-0.017,0.006-0.024c0.002-0.003,0.001-0.007,0.001-0.011
	c0.009-0.041,0.016-0.082,0.023-0.124c0.011-0.041,0.019-0.084,0.028-0.125c0.001-0.002,0.001-0.004,0.002-0.006
	c0-0.001,0.001-0.003,0.002-0.005c0-0.007,0.002-0.014,0.003-0.021c0.011-0.054,0.022-0.106,0.038-0.159
	c0.01-0.049,0.022-0.096,0.036-0.144c0.008-0.034,0.018-0.067,0.025-0.101c0.003-0.006,0.005-0.012,0.004-0.019
	c0.004-0.008,0.006-0.015,0.009-0.023c0-0.006,0.004-0.011,0.006-0.016c0-0.001-0.001-0.002,0-0.004
	c0-0.002,0.002-0.003,0.002-0.005c0.01-0.04,0.022-0.08,0.032-0.12c0.017-0.047,0.03-0.095,0.044-0.143
	c0.014-0.038,0.025-0.075,0.039-0.113c0-0.002,0.002-0.005,0.002-0.007c0-0.004,0.003-0.007,0.002-0.012
	c0.017-0.043,0.032-0.087,0.047-0.132c0.017-0.043,0.032-0.087,0.047-0.13c0.012-0.027,0.021-0.054,0.032-0.08
	c0.001-0.004,0.002-0.008,0.004-0.011c0.005-0.013,0.01-0.027,0.015-0.04c0.002-0.007,0.006-0.014,0.008-0.022
	c0.002-0.003,0.005-0.007,0.007-0.011c0.01-0.031,0.021-0.062,0.034-0.091c0.018-0.042,0.035-0.084,0.052-0.125
	c0.017-0.042,0.037-0.083,0.055-0.124c0.011-0.025,0.022-0.051,0.033-0.076c0.002-0.005,0.005-0.009,0.008-0.015
	c0.004-0.011,0.008-0.023,0.014-0.034c0.02-0.04,0.039-0.08,0.057-0.12c0.012-0.024,0.023-0.047,0.037-0.071
	c-0.001-0.002,0-0.003,0-0.004c0.002-0.001,0.003-0.003,0.004-0.005c0.006-0.013,0.012-0.025,0.018-0.038
	c0.021-0.04,0.042-0.079,0.061-0.12c0.005-0.007,0.009-0.014,0.013-0.021c0.001-0.003,0.002-0.006,0.004-0.01
	c0.017-0.029,0.03-0.059,0.046-0.087c0.014-0.026,0.027-0.052,0.043-0.078c0.001-0.003,0.003-0.004,0.005-0.006
	c0.004-0.01,0.01-0.021,0.016-0.032c0.023-0.039,0.043-0.078,0.066-0.116c0.017-0.03,0.033-0.059,0.051-0.088
	c0.002-0.003,0.004-0.006,0.006-0.01c0.004-0.004,0.006-0.011,0.01-0.017c0.018-0.03,0.035-0.059,0.052-0.089
	c0.004-0.003,0.005-0.006,0.009-0.009c0.002-0.006,0.006-0.011,0.008-0.017c0.023-0.039,0.047-0.077,0.07-0.114
	c0.025-0.038,0.05-0.076,0.073-0.114c0.011-0.015,0.021-0.029,0.03-0.044c0.003-0.003,0.004-0.007,0.008-0.01
	c0.011-0.02,0.024-0.04,0.038-0.06c0.024-0.036,0.051-0.074,0.076-0.112c0.013-0.02,0.024-0.038,0.041-0.057
	c0.012-0.02,0.026-0.039,0.04-0.058c0.015-0.02,0.025-0.039,0.039-0.058c0.015-0.019,0.029-0.038,0.043-0.057
	s0.028-0.038,0.041-0.055c0.015-0.019,0.028-0.037,0.041-0.055c0.014-0.019,0.029-0.037,0.041-0.055
	c0.015-0.017,0.029-0.036,0.041-0.055c0.031-0.037,0.062-0.073,0.091-0.11c0.015-0.021,0.031-0.04,0.048-0.06
	c0.002-0.004,0.006-0.008,0.009-0.011c0.012-0.013,0.022-0.026,0.032-0.039c0.031-0.036,0.06-0.072,0.09-0.109
	c0.031-0.036,0.063-0.071,0.094-0.106c0.033-0.038,0.066-0.075,0.099-0.111c0.032-0.038,0.066-0.074,0.103-0.11
	c0.032-0.037,0.065-0.073,0.1-0.108c0.035-0.036,0.071-0.071,0.105-0.106c0.01-0.01,0.021-0.021,0.029-0.031
	c0.007-0.007,0.017-0.014,0.023-0.021c0.021-0.02,0.039-0.041,0.061-0.06c0.036-0.037,0.074-0.074,0.112-0.11
	c0.039-0.037,0.077-0.072,0.117-0.108c0.016-0.015,0.032-0.029,0.046-0.043c0.007-0.005,0.013-0.01,0.019-0.016
	c0.019-0.016,0.035-0.032,0.052-0.049c0.045-0.038,0.089-0.075,0.133-0.114c0.043-0.039,0.087-0.075,0.133-0.112
	c0.011-0.009,0.022-0.02,0.033-0.028c0.011-0.006,0.021-0.015,0.027-0.023c0.025-0.019,0.05-0.039,0.073-0.059
	c0.045-0.037,0.091-0.071,0.137-0.108c0.053-0.041,0.106-0.081,0.161-0.12c0.003-0.001,0.004-0.004,0.006-0.005
	c0.053-0.038,0.103-0.077,0.156-0.113c0.055-0.039,0.108-0.077,0.163-0.115c0.02-0.014,0.039-0.024,0.06-0.039
	c0.011-0.009,0.024-0.019,0.038-0.026c0.022-0.016,0.047-0.032,0.068-0.047c0.072-0.045,0.142-0.091,0.216-0.135
	c0.025-0.017,0.05-0.033,0.077-0.048c0.01-0.006,0.021-0.013,0.029-0.021c0.012-0.006,0.021-0.011,0.029-0.017
	c0.027-0.015,0.053-0.031,0.078-0.047c0.073-0.042,0.147-0.085,0.22-0.126c0.023-0.014,0.048-0.025,0.071-0.039
	c0.021-0.011,0.039-0.021,0.06-0.032c0.03-0.017,0.061-0.035,0.091-0.05c0.041-0.021,0.082-0.038,0.121-0.059
	c0.104-0.054,0.208-0.106,0.313-0.155c0.028-0.014,0.057-0.028,0.085-0.041c0.031-0.016,0.065-0.028,0.099-0.043
	c0.104-0.047,0.21-0.092,0.317-0.137c0.037-0.016,0.075-0.033,0.113-0.048c0.024-0.009,0.049-0.017,0.071-0.027
	c0.116-0.043,0.231-0.086,0.348-0.126c0.042-0.015,0.082-0.031,0.123-0.044c0.012-0.004,0.024-0.008,0.036-0.012
	c0.172-0.057,0.344-0.11,0.517-0.159c0.027-0.008,0.053-0.015,0.076-0.022c0.028-0.007,0.055-0.015,0.079-0.021
	c0.03-0.006,0.055-0.013,0.082-0.02s0.052-0.015,0.08-0.021c0.021-0.005,0.049-0.009,0.072-0.016
	c0.112-0.028,0.229-0.051,0.342-0.075c0.045-0.009,0.089-0.021,0.134-0.03c0.015-0.002,0.026-0.004,0.037-0.006
	c0.019-0.003,0.034-0.006,0.048-0.01c0.139-0.025,0.277-0.046,0.414-0.067c0.02-0.001,0.039-0.006,0.056-0.009
	c0.003,0,0.003-0.001,0.005,0c0.176-0.025,0.351-0.045,0.528-0.061c0.008-0.001,0.018-0.002,0.024-0.004
	c0.044-0.002,0.085-0.004,0.128-0.007c0.124-0.009,0.249-0.019,0.377-0.023c0.02-0.001,0.037-0.003,0.056-0.004
	c0.084-0.003,0.168-0.006,0.254-0.007c0.026,0,0.052,0,0.077,0c0.019,0,0.038,0,0.06,0c0.037,0,0.078,0,0.117,0
	c0.083,0.001,0.169,0.003,0.252,0.005c0.021,0.002,0.04,0.002,0.06,0.003c0.019,0.001,0.039,0.001,0.06,0.003
	c0.043,0.001,0.088,0.002,0.134,0.006c0.068,0.004,0.135,0.009,0.202,0.014c0.031,0.002,0.06,0.005,0.091,0.008
	c0.016,0.001,0.03,0.002,0.047,0.004c0.021,0.002,0.043,0.004,0.064,0.006c0.067,0.007,0.134,0.014,0.201,0.022
	c0.062,0.007,0.122,0.015,0.183,0.023c0.01,0.001,0.016,0.001,0.021,0.003c0.057,0.006,0.114,0.014,0.173,0.023
	s0.114,0.019,0.172,0.027c0.035,0.007,0.072,0.014,0.109,0.021c0.007,0.001,0.014,0.002,0.021,0.003
	c0.006,0.001,0.01,0.001,0.015,0.002c0.01,0.002,0.018,0.003,0.028,0.006c0.058,0.01,0.115,0.021,0.172,0.033
	c0.053,0.011,0.103,0.021,0.156,0.034c0.028,0.005,0.057,0.013,0.086,0.02c0.012,0.003,0.021,0.005,0.032,0.007
	c0.014,0.003,0.024,0.005,0.038,0.008c0.052,0.013,0.103,0.025,0.154,0.039c0.051,0.013,0.104,0.026,0.153,0.041
	c0.032,0.009,0.065,0.018,0.099,0.027c0.008,0.002,0.016,0.004,0.022,0.006c0.009,0.003,0.015,0.004,0.021,0.006
	c0.049,0.014,0.096,0.027,0.142,0.042c0.046,0.014,0.094,0.028,0.14,0.043c0.048,0.015,0.096,0.03,0.141,0.046
	c0.006,0.002,0.008,0.002,0.013,0.003h0.002c0.039,0.014,0.079,0.027,0.119,0.042c0.044,0.014,0.089,0.03,0.132,0.046
	c0.045,0.017,0.091,0.034,0.133,0.051c0.019,0.007,0.039,0.015,0.058,0.022c0.01,0.003,0.017,0.007,0.025,0.011
	c0.016,0.005,0.032,0.012,0.05,0.019c0.039,0.016,0.082,0.034,0.125,0.051c0.043,0.019,0.084,0.037,0.126,0.055
	c0.043,0.018,0.085,0.037,0.128,0.055c0.002,0.002,0.006,0.003,0.01,0.005c0.039,0.018,0.077,0.035,0.115,0.053
	c0.04,0.019,0.082,0.038,0.121,0.058c0.042,0.021,0.081,0.04,0.12,0.061c0.024,0.011,0.049,0.025,0.073,0.036
	c0.008,0.005,0.015,0.008,0.022,0.013c0.009,0.004,0.018,0.009,0.025,0.014c0.04,0.02,0.079,0.041,0.12,0.063
	c0.039,0.021,0.08,0.042,0.119,0.065c0.039,0.022,0.079,0.045,0.117,0.067c0.01,0.005,0.019,0.01,0.029,0.016
	c0.007,0.004,0.016,0.009,0.021,0.014c0.022,0.013,0.043,0.025,0.067,0.039c0.038,0.024,0.076,0.047,0.117,0.072
	c0.016,0.011,0.037,0.024,0.055,0.035c0.021,0.012,0.038,0.023,0.057,0.035c0.02,0.012,0.038,0.024,0.058,0.036
	c0.019,0.012,0.037,0.025,0.057,0.037c0.02,0.013,0.04,0.026,0.06,0.039s0.038,0.026,0.057,0.04c0.021,0.013,0.041,0.027,0.059,0.04
	c0.021,0.014,0.04,0.027,0.06,0.042c0.037,0.026,0.076,0.053,0.114,0.081c0.012,0.009,0.027,0.02,0.041,0.03
	c0.009,0.006,0.015,0.012,0.022,0.017c0.016,0.012,0.031,0.023,0.046,0.035c0.037,0.026,0.074,0.055,0.11,0.083
	c0.002,0.001,0.002,0.001,0.004,0.002c0.034,0.027,0.07,0.055,0.103,0.082c0.036,0.027,0.069,0.054,0.101,0.08
	c0.004,0.004,0.008,0.006,0.01,0.009c0,0,0.003,0.001,0.004,0.002c0.037,0.03,0.073,0.061,0.11,0.092
	c0.036,0.031,0.071,0.062,0.107,0.093c0.027,0.025,0.055,0.049,0.082,0.074c0.002,0.001,0.005,0.003,0.008,0.006
	c0.002,0.001,0.003,0.004,0.007,0.006c0.002,0.003,0.006,0.006,0.009,0.009c0.007,0.006,0.013,0.011,0.02,0.016
	c0.007,0.008,0.015,0.014,0.022,0.021c0.023,0.021,0.048,0.043,0.069,0.065c0.039,0.035,0.074,0.07,0.11,0.104
	c0.037,0.036,0.072,0.071,0.108,0.106c0.008,0.008,0.017,0.018,0.026,0.027c0.008,0.007,0.014,0.015,0.021,0.022
	c0.019,0.019,0.038,0.038,0.058,0.058c0.008,0.008,0.016,0.018,0.021,0.024c0.007,0.006,0.012,0.011,0.017,0.016
	c0.023,0.026,0.048,0.052,0.075,0.079c0.035,0.04,0.072,0.081,0.108,0.122c0.007,0.006,0.014,0.013,0.021,0.021
	c0.004,0.005,0.008,0.01,0.013,0.016c0.024,0.029,0.048,0.057,0.075,0.085c0.034,0.042,0.069,0.083,0.104,0.124
	c0.008,0.011,0.018,0.022,0.025,0.033c0.001,0.002,0.004,0.004,0.007,0.006c0,0.003,0.003,0.006,0.007,0.01
	c0.019,0.023,0.039,0.046,0.057,0.071c0.005,0.005,0.01,0.012,0.014,0.017c0.002,0.002,0.005,0.006,0.008,0.008
	c0.037,0.049,0.075,0.099,0.113,0.147c0.037,0.05,0.072,0.099,0.109,0.149c0.009,0.013,0.017,0.025,0.024,0.037
	c0.011,0.013,0.018,0.024,0.025,0.036c0.009,0.011,0.016,0.021,0.022,0.032c0.004,0.005,0.008,0.012,0.015,0.019
	c0.005,0.009,0.013,0.019,0.021,0.028c0.042,0.064,0.086,0.129,0.127,0.193c0.012,0.019,0.022,0.038,0.037,0.057
	c0.005,0.009,0.011,0.016,0.015,0.025c0.007,0.011,0.014,0.022,0.021,0.033c0.015,0.026,0.032,0.054,0.05,0.082
	c0.019,0.031,0.037,0.063,0.056,0.094c0.004,0.006,0.008,0.013,0.012,0.019c0.004,0.005,0.006,0.011,0.01,0.018
	c0.013,0.021,0.024,0.044,0.038,0.066c0.01,0.016,0.018,0.031,0.026,0.046c0.01,0.018,0.018,0.035,0.029,0.052
	c0.02,0.035,0.037,0.068,0.056,0.102c0.038,0.069,0.073,0.139,0.107,0.208c0.006,0.011,0.012,0.022,0.016,0.034
	c0.006,0.009,0.008,0.017,0.014,0.026c0.004,0.008,0.008,0.016,0.011,0.023c0.021,0.042,0.041,0.084,0.062,0.128
	c0.031,0.07,0.063,0.141,0.095,0.211c0.003,0.006,0.004,0.013,0.007,0.018c0.003,0.008,0.006,0.016,0.009,0.024
	c0.023,0.058,0.048,0.115,0.071,0.173l0.52,1.312c0.011,0.028,0.019,0.057,0.029,0.085c0.043,0.116,0.086,0.233,0.126,0.351
	c0.014,0.047,0.032,0.093,0.045,0.139c0.02,0.062,0.038,0.124,0.055,0.187c0.003,0.016,0.013,0.032,0.018,0.048
	c0.005,0.021,0.008,0.041,0.012,0.059c0.021,0.069,0.038,0.135,0.055,0.201c0.003,0.013,0.005,0.025,0.007,0.036
	c0.038,0.154,0.071,0.31,0.098,0.464c0.006,0.022,0.009,0.043,0.013,0.063c0,0.001,0,0.002,0.001,0.003
	c0.002,0.007,0.001,0.014,0.002,0.019c0.003,0.02,0.005,0.04,0.008,0.06c0.004,0.001,0.008,0.002,0.013,0.005
	c0.027,0.01,0.053,0.02,0.077,0.03c0.07,0.027,0.141,0.056,0.212,0.083c0.068,0.028,0.138,0.058,0.208,0.087
	c0.069,0.029,0.138,0.059,0.208,0.089c0.003,0.001,0.009,0.005,0.013,0.006c0.002,0.001,0.005,0.002,0.008,0.003
	c0.061,0.028,0.123,0.056,0.185,0.084c0.069,0.031,0.133,0.062,0.2,0.093c0.067,0.031,0.134,0.064,0.2,0.096
	c0.042,0.021,0.083,0.042,0.123,0.062c0.008,0.004,0.015,0.007,0.023,0.012c0.017,0.009,0.033,0.018,0.052,0.027
	c0.066,0.033,0.13,0.067,0.195,0.102c0.067,0.034,0.132,0.069,0.196,0.105c0.063,0.035,0.129,0.072,0.192,0.107
	c0.018,0.01,0.037,0.021,0.055,0.032c0.006,0.002,0.012,0.005,0.018,0.01c0.04,0.023,0.081,0.046,0.12,0.069
	c0.063,0.038,0.127,0.076,0.189,0.113c0.032,0.019,0.062,0.038,0.095,0.058c0.028,0.019,0.06,0.038,0.092,0.057
	c0.031,0.02,0.062,0.04,0.091,0.058c0.031,0.02,0.062,0.04,0.093,0.059c0.033,0.021,0.066,0.043,0.097,0.063
	c0.033,0.021,0.064,0.043,0.096,0.063c0.032,0.021,0.065,0.043,0.096,0.065c0.031,0.021,0.062,0.043,0.093,0.064
	c0.063,0.043,0.124,0.085,0.186,0.129c0.025,0.018,0.049,0.035,0.073,0.054c0.011,0.006,0.02,0.012,0.027,0.019
	c0.027,0.02,0.055,0.039,0.08,0.058c0.026,0.018,0.05,0.037,0.071,0.053c0.008,0.006,0.017,0.012,0.023,0.019
	c0.029,0.021,0.058,0.042,0.086,0.063c0.059,0.044,0.116,0.089,0.174,0.134c0.057,0.044,0.112,0.089,0.167,0.134
	c0.002,0.001,0.003,0.001,0.003,0.002c0.006,0.003,0.008,0.006,0.014,0.01c0.059,0.049,0.119,0.099,0.178,0.147
	c0.043,0.036,0.085,0.073,0.127,0.109c0.005,0.003,0.008,0.005,0.012,0.007c0.001,0.002,0.005,0.005,0.006,0.007
	c0.01,0.008,0.019,0.017,0.031,0.026c0.056,0.049,0.113,0.1,0.17,0.151c0.012,0.009,0.022,0.02,0.03,0.029
	c0.009,0.007,0.019,0.015,0.027,0.023c0.041,0.037,0.083,0.075,0.125,0.113c0.058,0.055,0.118,0.111,0.175,0.167
	c0.044,0.043,0.086,0.086,0.132,0.129c0.006,0.006,0.011,0.011,0.017,0.017c0.007,0.008,0.017,0.017,0.025,0.025
	c0.014,0.014,0.027,0.029,0.041,0.042c0.009,0.01,0.019,0.019,0.028,0.028c0.032,0.033,0.065,0.066,0.098,0.099
	c0.062,0.064,0.122,0.128,0.182,0.192c0.059,0.063,0.118,0.128,0.175,0.193c0.009,0.011,0.02,0.023,0.03,0.035
	c0.007,0.006,0.011,0.012,0.015,0.017c0.013,0.014,0.025,0.028,0.037,0.042c0.002,0.003,0.006,0.006,0.009,0.009
	c0.004,0.004,0.004,0.007,0.007,0.011c0.024,0.027,0.051,0.055,0.074,0.083c0.057,0.067,0.111,0.132,0.166,0.199
	c0.053,0.063,0.104,0.127,0.153,0.191c0.008,0.009,0.015,0.018,0.021,0.026c0.003,0.005,0.008,0.009,0.012,0.015
	c0.046,0.06,0.095,0.122,0.141,0.182c0.005,0.007,0.01,0.013,0.017,0.021c0.006,0.01,0.015,0.021,0.022,0.032
	c0.06,0.078,0.118,0.157,0.174,0.237c0.018,0.023,0.032,0.045,0.047,0.068c0.009,0.011,0.018,0.023,0.026,0.035
	c0.032,0.046,0.063,0.092,0.096,0.138c0.042,0.065,0.087,0.132,0.13,0.199c0.007,0.009,0.014,0.019,0.021,0.028
	c0.003,0.007,0.008,0.014,0.011,0.021c0.014,0.019,0.027,0.039,0.039,0.059c0.021,0.031,0.041,0.064,0.061,0.096
	c0.006,0.012,0.016,0.022,0.022,0.034c0.009,0.015,0.016,0.03,0.024,0.042c0.028,0.047,0.058,0.092,0.084,0.139
	c0.063,0.104,0.125,0.209,0.184,0.315c0.007,0.015,0.015,0.03,0.024,0.045c0.006,0.013,0.013,0.025,0.02,0.039
	c0.015,0.025,0.027,0.049,0.041,0.074c0.029,0.054,0.059,0.107,0.086,0.161c0.024,0.044,0.046,0.089,0.068,0.133
	c0.022,0.045,0.044,0.089,0.066,0.134c0.021,0.044,0.043,0.09,0.066,0.134c-0.001,0,0,0.002,0,0.002
	c0.001,0.001,0.004,0.004,0.002,0.005c0.021,0.042,0.042,0.085,0.061,0.127l5.786,12.562c0.031,0.071,0.058,0.144,0.089,0.214
	c0.069,0.159,0.136,0.315,0.199,0.473c0.027,0.068,0.053,0.137,0.077,0.202c0.024,0.064,0.046,0.128,0.069,0.191
	c0.043,0.126,0.088,0.254,0.13,0.382c0.016,0.048,0.033,0.096,0.049,0.146c0.018,0.059,0.028,0.114,0.046,0.17
	c0.008,0.024,0.015,0.05,0.021,0.074c0.012,0.038,0.024,0.076,0.036,0.116c0.026,0.092,0.046,0.184,0.069,0.275
	c0.026,0.107,0.055,0.216,0.079,0.321c0.021,0.1,0.042,0.198,0.062,0.294c0.013,0.074,0.026,0.147,0.04,0.222
	c0.012,0.062,0.025,0.12,0.037,0.182c0.005,0.032,0.007,0.064,0.013,0.098c0.023,0.145,0.042,0.292,0.06,0.439
	c0.006,0.055,0.018,0.106,0.023,0.16c0.003,0.02,0.003,0.042,0.006,0.06c0.005,0.046,0.008,0.09,0.014,0.136
	c0.002,0.022,0.006,0.044,0.009,0.066c0.02,0.204,0.029,0.407,0.037,0.611c0.002,0.036,0.008,0.071,0.009,0.107
	c0.001,0.004-0.001,0.008,0,0.012c0.001,0.005,0,0.011,0,0.017c0.001,0.01,0,0.018,0.001,0.025
	C95.003,58.14,95.002,58.392,94.995,58.644z M77.312,70.429c1.782-0.322,3.474-0.896,5.032-1.706
	c1.584-0.823,2.968-1.863,4.121-3.099c1.101-1.178,1.91-2.456,2.406-3.803c0.459-1.244,0.635-2.499,0.523-3.724
	c-0.114-1.236-0.513-2.404-1.183-3.472c-0.755-1.198-1.827-2.237-3.19-3.084c-1.483-0.923-3.193-1.547-5.082-1.856
	c-0.866-0.142-1.764-0.214-2.669-0.214c-1.065,0-2.147,0.1-3.219,0.295c-1.971,0.361-3.899,1.062-5.577,2.024
	c-1.69,0.971-3.113,2.183-4.227,3.598c-1.023,1.304-1.708,2.681-2.034,4.104c-0.291,1.257-0.291,2.501,0.001,3.703
	c0.284,1.179,0.839,2.273,1.649,3.26c0.875,1.065,2.021,1.964,3.408,2.677c1.44,0.741,3.051,1.229,4.79,1.446
	c0.688,0.088,1.397,0.132,2.106,0.132C75.217,70.712,76.274,70.616,77.312,70.429z M25.833,70.712c0.708,0,1.414-0.044,2.107-0.132
	c1.734-0.218,3.344-0.703,4.789-1.446c1.385-0.711,2.53-1.611,3.41-2.683c0.807-0.979,1.36-2.073,1.646-3.256
	c0.291-1.202,0.292-2.446,0-3.705c-0.327-1.42-1.012-2.801-2.036-4.103c-1.109-1.413-2.53-2.621-4.224-3.592
	c-1.705-0.979-3.583-1.662-5.58-2.028c-1.067-0.195-2.148-0.294-3.214-0.294c-0.906,0-1.805,0.072-2.673,0.214
	c-1.886,0.308-3.597,0.932-5.083,1.857c-1.362,0.847-2.433,1.882-3.187,3.082c-0.673,1.071-1.071,2.237-1.183,3.47
	c-0.113,1.23,0.062,2.483,0.521,3.726c0.497,1.342,1.309,2.625,2.413,3.81c1.146,1.23,2.531,2.269,4.119,3.092
	c1.56,0.811,3.252,1.386,5.024,1.706C23.728,70.616,24.789,70.712,25.833,70.712L25.833,70.712z"/>
</svg>
